{"asset": {"generator": "glTF-Transform v4.4.2", "version": "2.0"}, "accessors": [{"type": "VEC3", "componentType": 5126, "count": 21, "max": [-5.695000171661377, 3.7850000858306885, -5.010000228881836], "min": [-6.804999828338623, 1.0699999332427979, -5.010000228881836], "bufferView": 0, "byteOffset": 0}, {"type": "VEC3", "componentType": 5126, "count": 21, "bufferView": 0, "byteOffset": 12}, {"type": "SCALAR", "componentType": 5123, "count": 57, "bufferView": 1, "byteOffset": 0}, {"type": "SCALAR", "componentType": 5123, "count": 36, "bufferView": 1, "byteOffset": 116}, {"type": "SCALAR", "componentType": 5123, "count": 132, "bufferView": 1, "byteOffset": 188}, {"type": "SCALAR", "componentType": 5123, "count": 960, "bufferView": 1, "byteOffset": 452}, {"type": "SCALAR", "componentType": 5123, "count": 960, "bufferView": 1, "byteOffset": 2372}, {"type": "SCALAR", "componentType": 5123, "count": 960, "bufferView": 1, "byteOffset": 4292}, {"type": "SCALAR", "componentType": 5123, "count": 960, "bufferView": 1, "byteOffset": 6212}, {"type": "SCALAR", "componentType": 5123, "count": 960, "bufferView": 1, "byteOffset": 8132}, {"type": "SCALAR", "componentType": 5123, "count": 960, "bufferView": 1, "byteOffset": 10052}, {"type": "SCALAR", "componentType": 5123, "count": 960, "bufferView": 1, "byteOffset": 11972}, {"type": "SCALAR", "componentType": 5123, "count": 960, "bufferView": 1, "byteOffset": 13892}, {"type": "SCALAR", "componentType": 5123, "count": 960, "bufferView": 1, "byteOffset": 15812}, {"type": "SCALAR", "componentType": 5123, "count": 960, "bufferView": 1, "byteOffset": 17732}, {"type": "SCALAR", "componentType": 5123, "count": 960, "bufferView": 1, "byteOffset": 19652}, {"type": "SCALAR", "componentType": 5123, "count": 960, "bufferView": 1, "byteOffset": 21572}, {"type": "SCALAR", "componentType": 5123, "count": 960, "bufferView": 1, "byteOffset": 23492}, {"type": "SCALAR", "componentType": 5123, "count": 960, "bufferView": 1, "byteOffset": 25412}, {"type": "SCALAR", "componentType": 5123, "count": 132, "bufferView": 1, "byteOffset": 27332}, {"type": "SCALAR", "componentType": 5123, "count": 3432, "bufferView": 1, "byteOffset": 27596}, {"type": "SCALAR", "componentType": 5123, "count": 276, "bufferView": 1, "byteOffset": 34460}, {"type": "SCALAR", "componentType": 5123, "count": 36, "bufferView": 1, "byteOffset": 35012}, {"type": "SCALAR", "componentType": 5123, "count": 4194, "bufferView": 1, "byteOffset": 35084}, {"type": "SCALAR", "componentType": 5123, "count": 1332, "bufferView": 1, "byteOffset": 43472}, {"type": "SCALAR", "componentType": 5123, "count": 2688, "bufferView": 1, "byteOffset": 46136}, {"type": "SCALAR", "componentType": 5123, "count": 660, "bufferView": 1, "byteOffset": 51512}, {"type": "SCALAR", "componentType": 5123, "count": 324, "bufferView": 1, "byteOffset": 52832}, {"type": "SCALAR", "componentType": 5123, "count": 228, "bufferView": 1, "byteOffset": 53480}, {"type": "SCALAR", "componentType": 5123, "count": 120, "bufferView": 1, "byteOffset": 53936}, {"type": "SCALAR", "componentType": 5123, "count": 192, "bufferView": 1, "byteOffset": 54176}, {"type": "SCALAR", "componentType": 5123, "count": 144, "bufferView": 1, "byteOffset": 54560}, {"type": "SCALAR", "componentType": 5123, "count": 55296, "bufferView": 1, "byteOffset": 54848}, {"type": "SCALAR", "componentType": 5123, "count": 3234, "bufferView": 1, "byteOffset": 165440}, {"type": "SCALAR", "componentType": 5123, "count": 2964, "bufferView": 1, "byteOffset": 171908}, {"type": "SCALAR", "componentType": 5123, "count": 24117, "bufferView": 1, "byteOffset": 177836}, {"type": "SCALAR", "componentType": 5123, "count": 132, "bufferView": 1, "byteOffset": 226072}, {"type": "SCALAR", "componentType": 5123, "count": 7560, "bufferView": 1, "byteOffset": 226336}, {"type": "SCALAR", "componentType": 5123, "count": 23664, "bufferView": 1, "byteOffset": 241456}, {"type": "SCALAR", "componentType": 5123, "count": 11238, "bufferView": 1, "byteOffset": 288784}, {"type": "SCALAR", "componentType": 5125, "count": 151869, "bufferView": 1, "byteOffset": 311260}, {"type": "SCALAR", "componentType": 5123, "count": 132, "bufferView": 1, "byteOffset": 918736}, {"type": "SCALAR", "componentType": 5123, "count": 1812, "bufferView": 1, "byteOffset": 919000}, {"type": "SCALAR", "componentType": 5123, "count": 2304, "bufferView": 1, "byteOffset": 922624}, {"type": "SCALAR", "componentType": 5123, "count": 180, "bufferView": 1, "byteOffset": 927232}, {"type": "SCALAR", "componentType": 5123, "count": 2112, "bufferView": 1, "byteOffset": 927592}, {"type": "VEC3", "componentType": 5126, "count": 21, "max": [-3.194999933242798, 3.7850000858306885, -5.010000228881836], "min": [-4.304999828338623, 1.0699999332427979, -5.010000228881836], "bufferView": 2, "byteOffset": 0}, {"type": "VEC3", "componentType": 5126, "count": 21, "max": [4.304999828338623, 3.7850000858306885, -5.010000228881836], "min": [3.194999933242798, 1.0699999332427979, -5.010000228881836], "bufferView": 3, "byteOffset": 0}, {"type": "VEC3", "componentType": 5126, "count": 21, "max": [6.804999828338623, 3.7850000858306885, -5.010000228881836], "min": [5.695000171661377, 1.0699999332427979, -5.010000228881836], "bufferView": 4, "byteOffset": 0}, {"type": "VEC3", "componentType": 5126, "count": 21, "max": [-5.695000171661377, 3.7850000858306885, 5.010000228881836], "min": [-6.804999828338623, 1.0699999332427979, 5.010000228881836], "bufferView": 5, "byteOffset": 0}, {"type": "VEC3", "componentType": 5126, "count": 21, "max": [-3.194999933242798, 3.7850000858306885, 5.010000228881836], "min": [-4.304999828338623, 1.0699999332427979, 5.010000228881836], "bufferView": 6, "byteOffset": 0}, {"type": "VEC3", "componentType": 5126, "count": 21, "max": [4.304999828338623, 3.7850000858306885, 5.010000228881836], "min": [3.194999933242798, 1.0699999332427979, 5.010000228881836], "bufferView": 7, "byteOffset": 0}, {"type": "VEC3", "componentType": 5126, "count": 21, "max": [6.804999828338623, 3.7850000858306885, 5.010000228881836], "min": [5.695000171661377, 1.0699999332427979, 5.010000228881836], "bufferView": 8, "byteOffset": 0}, {"type": "VEC3", "componentType": 5126, "count": 21, "max": [-7.21999979019165, 3.7850000858306885, 4.304999828338623], "min": [-7.21999979019165, 1.0699999332427979, 3.194999933242798], "bufferView": 9, "byteOffset": 0}, {"type": "VEC3", "componentType": 5126, "count": 21, "bufferView": 9, "byteOffset": 12}, {"type": "VEC3", "componentType": 5126, "count": 21, "max": [-7.21999979019165, 3.7850000858306885, 1.8050000667572021], "min": [-7.21999979019165, 1.0699999332427979, 0.6949999928474426], "bufferView": 10, "byteOffset": 0}, {"type": "VEC3", "componentType": 5126, "count": 21, "max": [-7.21999979019165, 3.7850000858306885, -0.6949999928474426], "min": [-7.21999979019165, 1.0699999332427979, -1.8050000667572021], "bufferView": 11, "byteOffset": 0}, {"type": "VEC3", "componentType": 5126, "count": 21, "max": [-7.21999979019165, 3.7850000858306885, -3.194999933242798], "min": [-7.21999979019165, 1.0699999332427979, -4.304999828338623], "bufferView": 12, "byteOffset": 0}, {"type": "VEC3", "componentType": 5126, "count": 21, "max": [7.21999979019165, 3.7850000858306885, 4.304999828338623], "min": [7.21999979019165, 1.0699999332427979, 3.194999933242798], "bufferView": 13, "byteOffset": 0}, {"type": "VEC3", "componentType": 5126, "count": 21, "max": [7.21999979019165, 3.7850000858306885, 1.8050000667572021], "min": [7.21999979019165, 1.0699999332427979, 0.6949999928474426], "bufferView": 14, "byteOffset": 0}, {"type": "VEC3", "componentType": 5126, "count": 21, "max": [7.21999979019165, 3.7850000858306885, -0.6949999928474426], "min": [7.21999979019165, 1.0699999332427979, -1.8050000667572021], "bufferView": 15, "byteOffset": 0}, {"type": "VEC3", "componentType": 5126, "count": 21, "max": [7.21999979019165, 3.7850000858306885, -3.194999933242798], "min": [7.21999979019165, 1.0699999332427979, -4.304999828338623], "bufferView": 16, "byteOffset": 0}, {"type": "VEC3", "componentType": 5126, "count": 21, "max": [-5.725000381469727, 3.755000114440918, -5.03000020980835], "min": [-6.774999618530273, 1.0999999046325684, -5.03000020980835], "bufferView": 17, "byteOffset": 0}, {"type": "VEC3", "componentType": 5126, "count": 21, "max": [-3.2249999046325684, 3.755000114440918, -5.03000020980835], "min": [-4.274999618530273, 1.0999999046325684, -5.03000020980835], "bufferView": 18, "byteOffset": 0}, {"type": "VEC3", "componentType": 5126, "count": 21, "max": [4.274999618530273, 3.755000114440918, -5.03000020980835], "min": [3.2249999046325684, 1.0999999046325684, -5.03000020980835], "bufferView": 19, "byteOffset": 0}, {"type": "VEC3", "componentType": 5126, "count": 21, "max": [6.774999618530273, 3.755000114440918, -5.03000020980835], "min": [5.725000381469727, 1.0999999046325684, -5.03000020980835], "bufferView": 20, "byteOffset": 0}, {"type": "VEC3", "componentType": 5126, "count": 21, "max": [-5.725000381469727, 3.755000114440918, 5.03000020980835], "min": [-6.774999618530273, 1.0999999046325684, 5.03000020980835], "bufferView": 21, "byteOffset": 0}, {"type": "VEC3", "componentType": 5126, "count": 21, "max": [-3.2249999046325684, 3.755000114440918, 5.03000020980835], "min": [-4.274999618530273, 1.0999999046325684, 5.03000020980835], "bufferView": 22, "byteOffset": 0}, {"type": "VEC3", "componentType": 5126, "count": 21, "max": [4.274999618530273, 3.755000114440918, 5.03000020980835], "min": [3.2249999046325684, 1.0999999046325684, 5.03000020980835], "bufferView": 23, "byteOffset": 0}, {"type": "VEC3", "componentType": 5126, "count": 21, "max": [6.774999618530273, 3.755000114440918, 5.03000020980835], "min": [5.725000381469727, 1.0999999046325684, 5.03000020980835], "bufferView": 24, "byteOffset": 0}, {"type": "VEC3", "componentType": 5126, "count": 21, "max": [-7.380000114440918, 3.7750000953674316, 4.294999599456787], "min": [-7.380000114440918, 1.0799999237060547, 3.2049999237060547], "bufferView": 25, "byteOffset": 0}, {"type": "VEC3", "componentType": 5126, "count": 21, "max": [-7.380000114440918, 3.7750000953674316, 1.7950000762939453], "min": [-7.380000114440918, 1.0799999237060547, 0.7049999833106995], "bufferView": 26, "byteOffset": 0}, {"type": "VEC3", "componentType": 5126, "count": 21, "max": [-7.380000114440918, 3.7750000953674316, -0.7049999833106995], "min": [-7.380000114440918, 1.0799999237060547, -1.7950000762939453], "bufferView": 27, "byteOffset": 0}, {"type": "VEC3", "componentType": 5126, "count": 21, "max": [-7.380000114440918, 3.7750000953674316, -3.2049999237060547], "min": [-7.380000114440918, 1.0799999237060547, -4.294999599456787], "bufferView": 28, "byteOffset": 0}, {"type": "VEC3", "componentType": 5126, "count": 21, "max": [7.380000114440918, 3.7750000953674316, 4.294999599456787], "min": [7.380000114440918, 1.0799999237060547, 3.2049999237060547], "bufferView": 29, "byteOffset": 0}, {"type": "VEC3", "componentType": 5126, "count": 21, "max": [7.380000114440918, 3.7750000953674316, 1.7950000762939453], "min": [7.380000114440918, 1.0799999237060547, 0.7049999833106995], "bufferView": 30, "byteOffset": 0}, {"type": "VEC3", "componentType": 5126, "count": 21, "max": [7.380000114440918, 3.7750000953674316, -0.7049999833106995], "min": [7.380000114440918, 1.0799999237060547, -1.7950000762939453], "bufferView": 31, "byteOffset": 0}, {"type": "VEC3", "componentType": 5126, "count": 21, "max": [7.380000114440918, 3.7750000953674316, -3.2049999237060547], "min": [7.380000114440918, 1.0799999237060547, -4.294999599456787], "bufferView": 32, "byteOffset": 0}, {"type": "VEC3", "componentType": 5126, "count": 24, "max": [0.20999999344348907, 0.23999999463558197, 0.20999999344348907], "min": [-0.20999999344348907, -0.23999999463558197, -0.20999999344348907], "bufferView": 33, "byteOffset": 0}, {"type": "VEC3", "componentType": 5126, "count": 24, "bufferView": 33, "byteOffset": 12}, {"type": "VEC2", "componentType": 5126, "count": 24, "bufferView": 33, "byteOffset": 24}, {"type": "VEC2", "componentType": 5126, "count": 24, "bufferView": 34, "byteOffset": 0}, {"type": "VEC2", "componentType": 5126, "count": 24, "bufferView": 35, "byteOffset": 0}, {"type": "VEC2", "componentType": 5126, "count": 24, "bufferView": 36, "byteOffset": 0}, {"type": "VEC3", "componentType": 5126, "count": 96, "max": [2.1500000953674316, 0.18000000715255737, 0.15000000596046448], "min": [-2.1500000953674316, -0.18000000715255737, -0.15000000596046448], "bufferView": 37, "byteOffset": 0}, {"type": "VEC3", "componentType": 5126, "count": 96, "bufferView": 37, "byteOffset": 12}, {"type": "VEC2", "componentType": 5126, "count": 96, "bufferView": 37, "byteOffset": 24}, {"type": "VEC2", "componentType": 5126, "count": 96, "bufferView": 38, "byteOffset": 0}, {"type": "VEC3", "componentType": 5126, "count": 96, "max": [0.15000000596046448, 0.18000000715255737, 2.1500000953674316], "min": [-0.15000000596046448, -0.18000000715255737, -2.1500000953674316], "bufferView": 39, "byteOffset": 0}, {"type": "VEC3", "componentType": 5126, "count": 96, "bufferView": 39, "byteOffset": 12}, {"type": "VEC2", "componentType": 5126, "count": 96, "bufferView": 39, "byteOffset": 24}, {"type": "VEC2", "componentType": 5126, "count": 96, "bufferView": 40, "byteOffset": 0}, {"type": "VEC3", "componentType": 5126, "count": 223, "max": [-26.20214080810547, 5.400000095367432, 20.7761173248291], "min": [-27.76294708251953, 0, 19.17578887939453], "bufferView": 41, "byteOffset": 0}, {"type": "VEC3", "componentType": 5126, "count": 223, "bufferView": 41, "byteOffset": 12}, {"type": "VEC3", "componentType": 5126, "count": 237, "max": [-26.200115203857422, 5.949999809265137, 12.7556734085083], "min": [-27.851228713989258, 0, 11.15206241607666], "bufferView": 42, "byteOffset": 0}, {"type": "VEC3", "componentType": 5126, "count": 237, "bufferView": 42, "byteOffset": 12}, {"type": "VEC3", "componentType": 5126, "count": 227, "max": [-26.200204849243164, 6.5, 4.8414835929870605], "min": [-27.826467514038086, 0, 3.206955671310425], "bufferView": 43, "byteOffset": 0}, {"type": "VEC3", "componentType": 5126, "count": 227, "bufferView": 43, "byteOffset": 12}, {"type": "VEC3", "componentType": 5126, "count": 234, "max": [-26.212398529052734, 5.400000095367432, -3.214531898498535], "min": [-27.81943130493164, 0, -4.798248291015625], "bufferView": 44, "byteOffset": 0}, {"type": "VEC3", "componentType": 5126, "count": 234, "bufferView": 44, "byteOffset": 12}, {"type": "VEC3", "componentType": 5126, "count": 240, "max": [-26.235700607299805, 5.949999809265137, -11.177727699279785], "min": [-27.771970748901367, 0, -12.79234504699707], "bufferView": 45, "byteOffset": 0}, {"type": "VEC3", "componentType": 5126, "count": 240, "bufferView": 45, "byteOffset": 12}, {"type": "VEC3", "componentType": 5126, "count": 226, "max": [27.815828323364258, 6.5, 20.869171142578125], "min": [26.182588577270508, 0, 19.15498924255371], "bufferView": 46, "byteOffset": 0}, {"type": "VEC3", "componentType": 5126, "count": 226, "bufferView": 46, "byteOffset": 12}, {"type": "VEC3", "componentType": 5126, "count": 234, "max": [27.83965492248535, 5.400000095367432, 12.774016380310059], "min": [26.191814422607422, 0, 11.185715675354004], "bufferView": 47, "byteOffset": 0}, {"type": "VEC3", "componentType": 5126, "count": 234, "bufferView": 47, "byteOffset": 12}, {"type": "VEC3", "componentType": 5126, "count": 230, "max": [27.825847625732422, 5.949999809265137, 4.841200828552246], "min": [26.17060089111328, 0, 3.229532241821289], "bufferView": 48, "byteOffset": 0}, {"type": "VEC3", "componentType": 5126, "count": 230, "bufferView": 48, "byteOffset": 12}, {"type": "VEC3", "componentType": 5126, "count": 232, "max": [27.830533981323242, 6.5, -3.181504487991333], "min": [26.192527770996094, 0, -4.866936206817627], "bufferView": 49, "byteOffset": 0}, {"type": "VEC3", "componentType": 5126, "count": 232, "bufferView": 49, "byteOffset": 12}, {"type": "VEC3", "componentType": 5126, "count": 222, "max": [27.79602813720703, 5.400000095367432, -11.168959617614746], "min": [26.111364364624023, 0, -12.87131118774414], "bufferView": 50, "byteOffset": 0}, {"type": "VEC3", "componentType": 5126, "count": 222, "bufferView": 50, "byteOffset": 12}, {"type": "VEC3", "componentType": 5126, "count": 228, "max": [-17.134531021118164, 5.099999904632568, -15.18059253692627], "min": [-18.8601131439209, 0, -16.846118927001953], "bufferView": 51, "byteOffset": 0}, {"type": "VEC3", "componentType": 5126, "count": 228, "bufferView": 51, "byteOffset": 12}, {"type": "VEC3", "componentType": 5126, "count": 236, "max": [-8.228362083435059, 5.699999809265137, -15.239710807800293], "min": [-9.776348114013672, 0, -16.784990310668945], "bufferView": 52, "byteOffset": 0}, {"type": "VEC3", "componentType": 5126, "count": 236, "bufferView": 52, "byteOffset": 12}, {"type": "VEC3", "componentType": 5126, "count": 236, "max": [9.878049850463867, 6.300000190734863, -15.14925479888916], "min": [8.128693580627441, 0, -16.83202362060547], "bufferView": 53, "byteOffset": 0}, {"type": "VEC3", "componentType": 5126, "count": 236, "bufferView": 53, "byteOffset": 12}, {"type": "VEC3", "componentType": 5126, "count": 234, "max": [18.80005645751953, 5.099999904632568, -15.1170015335083], "min": [17.166311264038086, 0, -16.826879501342773], "bufferView": 54, "byteOffset": 0}, {"type": "VEC3", "componentType": 5126, "count": 234, "bufferView": 54, "byteOffset": 12}, {"type": "VEC3", "componentType": 5126, "count": 72, "max": [0.03500000014901161, 0.1599999964237213, 0.03500000014901161], "min": [-0.03500000014901161, 0, -0.03500000014901161], "bufferView": 55, "byteOffset": 0}, {"type": "VEC3", "componentType": 5126, "count": 72, "bufferView": 55, "byteOffset": 12}, {"type": "VEC2", "componentType": 5126, "count": 72, "bufferView": 55, "byteOffset": 24}, {"type": "VEC3", "componentType": 5126, "count": 2496, "max": [1.25, 3.8499999046325684, 5.159999847412109], "min": [-1.25, 0.550000011920929, 5.099999904632568], "bufferView": 56, "byteOffset": 0}, {"type": "VEC3", "componentType": 5126, "count": 2496, "bufferView": 56, "byteOffset": 12}, {"type": "VEC2", "componentType": 5126, "count": 2496, "bufferView": 56, "byteOffset": 24}, {"type": "VEC3", "componentType": 5126, "count": 96, "max": [0.25, 0.10000000149011612, 0.6000000238418579], "min": [-0.25, -0.10000000149011612, -0.6000000238418579], "bufferView": 57, "byteOffset": 0}, {"type": "VEC3", "componentType": 5126, "count": 96, "bufferView": 57, "byteOffset": 12}, {"type": "VEC2", "componentType": 5126, "count": 96, "bufferView": 57, "byteOffset": 24}, {"type": "VEC2", "componentType": 5126, "count": 96, "bufferView": 58, "byteOffset": 0}, {"type": "VEC3", "componentType": 5126, "count": 96, "max": [2.5, 0.054999999701976776, 0.2750000059604645], "min": [-2.5, -0.054999999701976776, -0.2750000059604645], "bufferView": 59, "byteOffset": 0}, {"type": "VEC3", "componentType": 5126, "count": 96, "bufferView": 59, "byteOffset": 12}, {"type": "VEC2", "componentType": 5126, "count": 96, "bufferView": 59, "byteOffset": 24}, {"type": "VEC3", "componentType": 5126, "count": 96, "max": [2.200000047683716, 0.02500000037252903, 0.22499999403953552], "min": [-2.200000047683716, -0.02500000037252903, -0.22499999403953552], "bufferView": 60, "byteOffset": 0}, {"type": "VEC3", "componentType": 5126, "count": 96, "bufferView": 60, "byteOffset": 12}, {"type": "VEC2", "componentType": 5126, "count": 96, "bufferView": 60, "byteOffset": 24}, {"type": "VEC3", "componentType": 5126, "count": 144, "max": [-1.7999999523162842, 8.34000015258789, 2.200000047683716], "min": [-2.200000047683716, 8.220000267028809, 1.7999999523162842], "bufferView": 61, "byteOffset": 0}, {"type": "VEC3", "componentType": 5126, "count": 144, "bufferView": 61, "byteOffset": 12}, {"type": "VEC2", "componentType": 5126, "count": 144, "bufferView": 61, "byteOffset": 24}, {"type": "VEC3", "componentType": 5126, "count": 144, "max": [2.200000047683716, 8.34000015258789, 2.200000047683716], "min": [1.7999999523162842, 8.220000267028809, 1.7999999523162842], "bufferView": 62, "byteOffset": 0}, {"type": "VEC2", "componentType": 5126, "count": 144, "bufferView": 62, "byteOffset": 12}, {"type": "VEC3", "componentType": 5126, "count": 144, "max": [-1.7999999523162842, 8.34000015258789, -1.7999999523162842], "min": [-2.200000047683716, 8.220000267028809, -2.200000047683716], "bufferView": 63, "byteOffset": 0}, {"type": "VEC2", "componentType": 5126, "count": 144, "bufferView": 63, "byteOffset": 12}, {"type": "VEC3", "componentType": 5126, "count": 144, "max": [2.200000047683716, 8.34000015258789, -1.7999999523162842], "min": [1.7999999523162842, 8.220000267028809, -2.200000047683716], "bufferView": 64, "byteOffset": 0}, {"type": "VEC2", "componentType": 5126, "count": 144, "bufferView": 64, "byteOffset": 12}, {"type": "VEC3", "componentType": 5126, "count": 144, "max": [-1.8700000047683716, 8.760000228881836, 2.130000114440918], "min": [-2.130000114440918, 8.699999809265137, 1.8700000047683716], "bufferView": 65, "byteOffset": 0}, {"type": "VEC3", "componentType": 5126, "count": 144, "bufferView": 65, "byteOffset": 12}, {"type": "VEC2", "componentType": 5126, "count": 144, "bufferView": 65, "byteOffset": 24}, {"type": "VEC3", "componentType": 5126, "count": 144, "max": [2.130000114440918, 8.760000228881836, 2.130000114440918], "min": [1.8700000047683716, 8.699999809265137, 1.8700000047683716], "bufferView": 66, "byteOffset": 0}, {"type": "VEC2", "componentType": 5126, "count": 144, "bufferView": 66, "byteOffset": 12}, {"type": "VEC3", "componentType": 5126, "count": 144, "max": [-1.8700000047683716, 8.760000228881836, -1.8700000047683716], "min": [-2.130000114440918, 8.699999809265137, -2.130000114440918], "bufferView": 67, "byteOffset": 0}, {"type": "VEC2", "componentType": 5126, "count": 144, "bufferView": 67, "byteOffset": 12}, {"type": "VEC3", "componentType": 5126, "count": 144, "max": [2.130000114440918, 8.760000228881836, -1.8700000047683716], "min": [1.8700000047683716, 8.699999809265137, -2.130000114440918], "bufferView": 68, "byteOffset": 0}, {"type": "VEC2", "componentType": 5126, "count": 144, "bufferView": 68, "byteOffset": 12}, {"type": "VEC3", "componentType": 5126, "count": 144, "max": [-1.809999942779541, 8.699999809265137, 2.190000057220459], "min": [-2.190000057220459, 8.520000457763672, 1.809999942779541], "bufferView": 69, "byteOffset": 0}, {"type": "VEC3", "componentType": 5126, "count": 144, "bufferView": 69, "byteOffset": 12}, {"type": "VEC2", "componentType": 5126, "count": 144, "bufferView": 69, "byteOffset": 24}, {"type": "VEC3", "componentType": 5126, "count": 144, "max": [2.190000057220459, 8.699999809265137, 2.190000057220459], "min": [1.809999942779541, 8.520000457763672, 1.809999942779541], "bufferView": 70, "byteOffset": 0}, {"type": "VEC2", "componentType": 5126, "count": 144, "bufferView": 70, "byteOffset": 12}, {"type": "VEC3", "componentType": 5126, "count": 144, "max": [-1.809999942779541, 8.699999809265137, -1.809999942779541], "min": [-2.190000057220459, 8.520000457763672, -2.190000057220459], "bufferView": 71, "byteOffset": 0}, {"type": "VEC3", "componentType": 5126, "count": 144, "bufferView": 71, "byteOffset": 12}, {"type": "VEC2", "componentType": 5126, "count": 144, "bufferView": 71, "byteOffset": 24}, {"type": "VEC3", "componentType": 5126, "count": 144, "max": [2.190000057220459, 8.699999809265137, -1.809999942779541], "min": [1.809999942779541, 8.520000457763672, -2.190000057220459], "bufferView": 72, "byteOffset": 0}, {"type": "VEC2", "componentType": 5126, "count": 144, "bufferView": 72, "byteOffset": 12}, {"type": "VEC3", "componentType": 5126, "count": 24, "max": [-1.7799999713897705, 8.220000267028809, 2.2200000286102295], "min": [-2.2200000286102295, 8.079999923706055, 1.7799999713897705], "bufferView": 73, "byteOffset": 0}, {"type": "VEC3", "componentType": 5126, "count": 24, "bufferView": 73, "byteOffset": 12}, {"type": "VEC2", "componentType": 5126, "count": 24, "bufferView": 73, "byteOffset": 24}, {"type": "VEC3", "componentType": 5126, "count": 24, "max": [2.2200000286102295, 8.220000267028809, 2.2200000286102295], "min": [1.7799999713897705, 8.079999923706055, 1.7799999713897705], "bufferView": 74, "byteOffset": 0}, {"type": "VEC2", "componentType": 5126, "count": 24, "bufferView": 74, "byteOffset": 12}, {"type": "VEC3", "componentType": 5126, "count": 24, "max": [-1.7799999713897705, 8.220000267028809, -1.7799999713897705], "min": [-2.2200000286102295, 8.079999923706055, -2.2200000286102295], "bufferView": 75, "byteOffset": 0}, {"type": "VEC2", "componentType": 5126, "count": 24, "bufferView": 75, "byteOffset": 12}, {"type": "VEC3", "componentType": 5126, "count": 24, "max": [2.2200000286102295, 8.220000267028809, -1.7799999713897705], "min": [1.7799999713897705, 8.079999923706055, -2.2200000286102295], "bufferView": 76, "byteOffset": 0}, {"type": "VEC2", "componentType": 5126, "count": 24, "bufferView": 76, "byteOffset": 12}, {"type": "VEC3", "componentType": 5126, "count": 2011, "max": [0.14826184511184692, 0.42548006772994995, 0.15383927524089813], "min": [-0.15447840094566345, 0.001140591106377542, -0.15167511999607086], "bufferView": 77, "byteOffset": 0}, {"type": "VEC3", "componentType": 5126, "count": 2011, "bufferView": 77, "byteOffset": 12}, {"type": "VEC2", "componentType": 5126, "count": 2011, "bufferView": 77, "byteOffset": 24}, {"type": "VEC3", "componentType": 5126, "count": 144, "max": [-1.809999942779541, 8.520000457763672, 2.190000057220459], "min": [-2.190000057220459, 8.34000015258789, 1.809999942779541], "bufferView": 78, "byteOffset": 0}, {"type": "VEC3", "componentType": 5126, "count": 144, "bufferView": 78, "byteOffset": 12}, {"type": "VEC2", "componentType": 5126, "count": 144, "bufferView": 78, "byteOffset": 24}, {"type": "VEC3", "componentType": 5126, "count": 144, "max": [2.190000057220459, 8.520000457763672, 2.190000057220459], "min": [1.809999942779541, 8.34000015258789, 1.809999942779541], "bufferView": 79, "byteOffset": 0}, {"type": "VEC2", "componentType": 5126, "count": 144, "bufferView": 79, "byteOffset": 12}, {"type": "VEC3", "componentType": 5126, "count": 144, "max": [-1.809999942779541, 8.520000457763672, -1.809999942779541], "min": [-2.190000057220459, 8.34000015258789, -2.190000057220459], "bufferView": 80, "byteOffset": 0}, {"type": "VEC2", "componentType": 5126, "count": 144, "bufferView": 80, "byteOffset": 12}, {"type": "VEC3", "componentType": 5126, "count": 144, "max": [2.190000057220459, 8.520000457763672, -1.809999942779541], "min": [1.809999942779541, 8.34000015258789, -2.190000057220459], "bufferView": 81, "byteOffset": 0}, {"type": "VEC2", "componentType": 5126, "count": 144, "bufferView": 81, "byteOffset": 12}, {"type": "VEC3", "componentType": 5126, "count": 784, "max": [4.199999809265137, 0.05000000074505806, 17.399999618530273], "min": [-4.199999809265137, 0, 9], "bufferView": 82, "byteOffset": 0}, {"type": "VEC3", "componentType": 5126, "count": 784, "bufferView": 82, "byteOffset": 12}, {"type": "VEC2", "componentType": 5126, "count": 784, "bufferView": 82, "byteOffset": 24}, {"type": "VEC3", "componentType": 5126, "count": 1568, "max": [2.7799999713897705, 0.6399999856948853, 15.979999542236328], "min": [-2.7799999713897705, 0.5, 10.420000076293945], "bufferView": 83, "byteOffset": 0}, {"type": "VEC3", "componentType": 5126, "count": 1568, "bufferView": 83, "byteOffset": 12}, {"type": "VEC2", "componentType": 5126, "count": 1568, "bufferView": 83, "byteOffset": 24}, {"type": "VEC3", "componentType": 5126, "count": 784, "max": [2.4600000381469727, 0.14000000059604645, 15.65999984741211], "min": [-2.4600000381469727, 0.05000000074505806, 10.739999771118164], "bufferView": 84, "byteOffset": 0}, {"type": "VEC3", "componentType": 5126, "count": 784, "bufferView": 84, "byteOffset": 12}, {"type": "VEC2", "componentType": 5126, "count": 784, "bufferView": 84, "byteOffset": 24}, {"type": "VEC3", "componentType": 5126, "count": 1568, "max": [2.619999885559082, 0.5, 15.819999694824219], "min": [-2.619999885559082, 0.05000000074505806, 10.579999923706055], "bufferView": 85, "byteOffset": 0}, {"type": "VEC3", "componentType": 5126, "count": 1568, "bufferView": 85, "byteOffset": 12}, {"type": "VEC2", "componentType": 5126, "count": 1568, "bufferView": 85, "byteOffset": 24}, {"type": "VEC3", "componentType": 5126, "count": 336, "max": [2.440000057220459, 0.4050000011920929, 15.640000343322754], "min": [-2.440000057220459, 0.4000000059604645, 10.760000228881836], "bufferView": 86, "byteOffset": 0}, {"type": "VEC3", "componentType": 5126, "count": 336, "bufferView": 86, "byteOffset": 12}, {"type": "VEC3", "componentType": 5126, "count": 168, "max": [0.8600000143051147, 0.04500000178813934, 0.8600000143051147], "min": [-0.8600000143051147, -0.04500000178813934, -0.8600000143051147], "bufferView": 87, "byteOffset": 0}, {"type": "VEC3", "componentType": 5126, "count": 168, "bufferView": 87, "byteOffset": 12}, {"type": "VEC2", "componentType": 5126, "count": 168, "bufferView": 87, "byteOffset": 24}, {"type": "VEC3", "componentType": 5126, "count": 168, "max": [0.9200000166893005, 0.02500000037252903, 0.9200000166893005], "min": [-0.9200000166893005, -0.02500000037252903, -0.9200000166893005], "bufferView": 88, "byteOffset": 0}, {"type": "VEC2", "componentType": 5126, "count": 168, "bufferView": 88, "byteOffset": 12}, {"type": "VEC3", "componentType": 5126, "count": 120, "max": [0.4000000059604645, 0.03500000014901161, 0.4000000059604645], "min": [-0.4000000059604645, -0.03500000014901161, -0.4000000059604645], "bufferView": 89, "byteOffset": 0}, {"type": "VEC3", "componentType": 5126, "count": 120, "bufferView": 89, "byteOffset": 12}, {"type": "VEC2", "componentType": 5126, "count": 120, "bufferView": 89, "byteOffset": 24}, {"type": "VEC3", "componentType": 5126, "count": 62, "max": [0.06657395511865616, 0.20000000298023224, 0.07000000029802322], "min": [-0.06657395511865616, -0.20000000298023224, -0.07000000029802322], "bufferView": 90, "byteOffset": 0}, {"type": "VEC3", "componentType": 5126, "count": 62, "bufferView": 90, "byteOffset": 12}, {"type": "VEC3", "componentType": 5126, "count": 98, "max": [0.3400000035762787, 0.5249999761581421, 0.3400000035762787], "min": [-0.3400000035762787, -0.5249999761581421, -0.3400000035762787], "bufferView": 91, "byteOffset": 0}, {"type": "VEC3", "componentType": 5126, "count": 98, "bufferView": 91, "byteOffset": 12}, {"type": "VEC2", "componentType": 5126, "count": 98, "bufferView": 91, "byteOffset": 24}, {"type": "VEC3", "componentType": 5126, "count": 74, "max": [0.14000000059604645, 0.2750000059604645, 0.14000000059604645], "min": [-0.14000000059604645, -0.2750000059604645, -0.14000000059604645], "bufferView": 92, "byteOffset": 0}, {"type": "VEC3", "componentType": 5126, "count": 74, "bufferView": 92, "byteOffset": 12}, {"type": "VEC2", "componentType": 5126, "count": 74, "bufferView": 92, "byteOffset": 24}, {"type": "VEC3", "componentType": 5126, "count": 9409, "max": [120, 0.9734938740730286, 120], "min": [-120, -2.974449872970581, -120], "bufferView": 93, "byteOffset": 0}, {"type": "VEC3", "componentType": 5126, "count": 9409, "bufferView": 93, "byteOffset": 12}, {"type": "VEC2", "componentType": 5126, "count": 9409, "bufferView": 93, "byteOffset": 24}, {"type": "VEC4", "componentType": 5121, "count": 9409, "normalized": true, "bufferView": 93, "byteOffset": 32}, {"type": "VEC3", "componentType": 5126, "count": 620, "max": [16.299999237060547, 0.963331401348114, -10.985895156860352], "min": [-16.299999237060547, 0, -11.813982009887695], "bufferView": 94, "byteOffset": 0}, {"type": "VEC3", "componentType": 5126, "count": 620, "bufferView": 94, "byteOffset": 12}, {"type": "VEC3", "componentType": 5126, "count": 570, "max": [-15.486328125, 0.9632881283760071, 19], "min": [-16.314353942871094, 0, -11], "bufferView": 95, "byteOffset": 0}, {"type": "VEC3", "componentType": 5126, "count": 570, "bufferView": 95, "byteOffset": 12}, {"type": "VEC3", "componentType": 5126, "count": 570, "max": [16.31413459777832, 0.9632754921913147, 19], "min": [15.48563289642334, 0, -11], "bufferView": 96, "byteOffset": 0}, {"type": "VEC3", "componentType": 5126, "count": 570, "bufferView": 96, "byteOffset": 12}, {"type": "VEC3", "componentType": 5126, "count": 8767, "max": [2.799999952316284, 0.5319206714630127, 0.21924804151058197], "min": [-2.801819086074829, -0.00023976269585546106, -0.23889665305614471], "bufferView": 97, "byteOffset": 0}, {"type": "VEC3", "componentType": 5126, "count": 8767, "bufferView": 97, "byteOffset": 12}, {"type": "VEC2", "componentType": 5126, "count": 8767, "bufferView": 97, "byteOffset": 24}, {"type": "VEC3", "componentType": 5126, "count": 70, "max": [1.25, 3.8499999046325684, 5.099999904632568], "min": [-1.25, 0.550000011920929, 5.019999980926514], "bufferView": 98, "byteOffset": 0}, {"type": "VEC3", "componentType": 5126, "count": 70, "bufferView": 98, "byteOffset": 12}, {"type": "VEC2", "componentType": 5126, "count": 70, "bufferView": 98, "byteOffset": 24}, {"type": "VEC3", "componentType": 5126, "count": 4248, "max": [7.538670063018799, 5.050000190734863, 4.984920024871826], "min": [-7.538670063018799, 1.0499999523162842, -4.984920501708984], "bufferView": 99, "byteOffset": 0}, {"type": "VEC3", "componentType": 5126, "count": 4248, "bufferView": 99, "byteOffset": 12}, {"type": "VEC3", "componentType": 5126, "count": 8662, "max": [7.684999942779541, 7.260000228881836, 5.880000114440918], "min": [-7.684999942779541, 2.8499999046325684, -5.185000419616699], "bufferView": 100, "byteOffset": 0}, {"type": "VEC3", "componentType": 5126, "count": 8662, "bufferView": 100, "byteOffset": 12}, {"type": "VEC2", "componentType": 5126, "count": 8662, "bufferView": 100, "byteOffset": 24}, {"type": "VEC3", "componentType": 5126, "count": 6258, "max": [7.898252964019775, 6.949999809265137, 5.398356914520264], "min": [-7.897965908050537, 5.5329999923706055, -5.398250102996826], "bufferView": 101, "byteOffset": 0}, {"type": "VEC3", "componentType": 5126, "count": 6258, "bufferView": 101, "byteOffset": 12}, {"type": "VEC2", "componentType": 5126, "count": 6258, "bufferView": 101, "byteOffset": 24}, {"type": "VEC3", "componentType": 5126, "count": 67182, "max": [8.050000190734863, 6.8000006675720215, 6.099999904632568], "min": [-8.050000190734863, -3.76413122893382e-09, -5.5500006675720215], "bufferView": 102, "byteOffset": 0}, {"type": "VEC3", "componentType": 5126, "count": 67182, "bufferView": 102, "byteOffset": 12}, {"type": "VEC2", "componentType": 5126, "count": 67182, "bufferView": 102, "byteOffset": 24}, {"type": "VEC3", "componentType": 5126, "count": 4248, "max": [7.497207164764404, 5.050000190734863, 4.957502841949463], "min": [-7.497207164764404, 1.0499999523162842, -4.957503318786621], "bufferView": 103, "byteOffset": 0}, {"type": "VEC3", "componentType": 5126, "count": 4248, "bufferView": 103, "byteOffset": 12}, {"type": "VEC3", "componentType": 5126, "count": 96, "max": [3.049999952316284, 3.5999999046325684, 5.920000076293945], "min": [-3.049999952316284, 3.380000114440918, 5.300000190734863], "bufferView": 104, "byteOffset": 0}, {"type": "VEC3", "componentType": 5126, "count": 96, "bufferView": 104, "byteOffset": 12}, {"type": "VEC2", "componentType": 5126, "count": 96, "bufferView": 104, "byteOffset": 24}, {"type": "VEC3", "componentType": 5126, "count": 96, "max": [3.2799999713897705, 4.320000171661377, 6.059999942779541], "min": [-3.2799999713897705, 4.119999885559082, 5.300000190734863], "bufferView": 105, "byteOffset": 0}, {"type": "VEC3", "componentType": 5126, "count": 96, "bufferView": 105, "byteOffset": 12}, {"type": "VEC2", "componentType": 5126, "count": 96, "bufferView": 105, "byteOffset": 24}, {"type": "VEC3", "componentType": 5126, "count": 96, "max": [3.4000000953674316, 4.420000076293945, 6.139999866485596], "min": [-3.4000000953674316, 4.320000171661377, 5.300000190734863], "bufferView": 106, "byteOffset": 0}, {"type": "VEC3", "componentType": 5126, "count": 96, "bufferView": 106, "byteOffset": 12}, {"type": "VEC2", "componentType": 5126, "count": 96, "bufferView": 106, "byteOffset": 24}, {"type": "VEC3", "componentType": 5126, "count": 24, "max": [1.9600000381469727, 7.599999904632568, 1.9600000381469727], "min": [-1.9600000381469727, 6.829999923706055, -1.9600000381469727], "bufferView": 107, "byteOffset": 0}, {"type": "VEC3", "componentType": 5126, "count": 24, "bufferView": 107, "byteOffset": 12}, {"type": "VEC2", "componentType": 5126, "count": 24, "bufferView": 107, "byteOffset": 24}, {"type": "VEC3", "componentType": 5126, "count": 1796, "max": [0.3429032266139984, 0.29337579011917114, 0.09275700151920319], "min": [-0.3120707869529724, -0.019453758373856544, -0.0921466127038002], "bufferView": 108, "byteOffset": 0}, {"type": "VEC3", "componentType": 5126, "count": 1796, "bufferView": 108, "byteOffset": 12}, {"type": "VEC2", "componentType": 5126, "count": 1796, "bufferView": 108, "byteOffset": 24}, {"type": "VEC3", "componentType": 5126, "count": 1796, "max": [0.09275698661804199, 0.29337579011917114, 0.3120707869529724], "min": [-0.0921466276049614, -0.01945376954972744, -0.3429032266139984], "bufferView": 109, "byteOffset": 0}, {"type": "VEC3", "componentType": 5126, "count": 1796, "bufferView": 109, "byteOffset": 12}, {"type": "VEC2", "componentType": 5126, "count": 1796, "bufferView": 109, "byteOffset": 24}, {"type": "VEC3", "componentType": 5126, "count": 468, "max": [1.324172019958496, 10.949999809265137, 1.324172019958496], "min": [-1.324172019958496, 8.419999122619629, -1.324172019958496], "bufferView": 110, "byteOffset": 0}, {"type": "VEC3", "componentType": 5126, "count": 468, "bufferView": 110, "byteOffset": 12}, {"type": "VEC2", "componentType": 5126, "count": 468, "bufferView": 110, "byteOffset": 24}, {"type": "VEC3", "componentType": 5126, "count": 112, "max": [1.7386397123336792, 8.420000076293945, 1.7386397123336792], "min": [-1.7386397123336792, 7.599999904632568, -1.7386397123336792], "bufferView": 111, "byteOffset": 0}, {"type": "VEC3", "componentType": 5126, "count": 112, "bufferView": 111, "byteOffset": 12}, {"type": "VEC2", "componentType": 5126, "count": 112, "bufferView": 111, "byteOffset": 24}, {"type": "VEC3", "componentType": 5126, "count": 417, "max": [0.1847946047782898, 11.724023818969727, 0.1847946047782898], "min": [-0.1847946047782898, 10.949999809265137, -0.1847946047782898], "bufferView": 112, "byteOffset": 0}, {"type": "VEC3", "componentType": 5126, "count": 417, "bufferView": 112, "byteOffset": 12}, {"type": "VEC2", "componentType": 5126, "count": 417, "bufferView": 112, "byteOffset": 24}, {"type": "VEC3", "componentType": 5126, "count": 96, "max": [10.100000381469727, 0.07000000029802322, 7.900000095367432], "min": [-10.100000381469727, -0.07000000029802322, -7.900000095367432], "bufferView": 113, "byteOffset": 0}, {"type": "VEC3", "componentType": 5126, "count": 96, "bufferView": 113, "byteOffset": 12}, {"type": "VEC2", "componentType": 5126, "count": 96, "bufferView": 113, "byteOffset": 24}, {"type": "VEC3", "componentType": 5126, "count": 96, "max": [9.5, 0.20000000298023224, 7.300000190734863], "min": [-9.5, -0.20000000298023224, -7.300000190734863], "bufferView": 114, "byteOffset": 0}, {"type": "VEC2", "componentType": 5126, "count": 96, "bufferView": 114, "byteOffset": 12}], "bufferViews": [{"buffer": 0, "byteOffset": 0, "byteLength": 504, "byteStride": 24, "target": 34962}, {"buffer": 0, "byteOffset": 504, "byteLength": 931816, "target": 34963}, {"buffer": 0, "byteOffset": 932320, "byteLength": 252, "byteStride": 12, "target": 34962}, {"buffer": 0, "byteOffset": 932572, "byteLength": 252, "byteStride": 12, "target": 34962}, {"buffer": 0, "byteOffset": 932824, "byteLength": 252, "byteStride": 12, "target": 34962}, {"buffer": 0, "byteOffset": 933076, "byteLength": 252, "byteStride": 12, "target": 34962}, {"buffer": 0, "byteOffset": 933328, "byteLength": 252, "byteStride": 12, "target": 34962}, {"buffer": 0, "byteOffset": 933580, "byteLength": 252, "byteStride": 12, "target": 34962}, {"buffer": 0, "byteOffset": 933832, "byteLength": 252, "byteStride": 12, "target": 34962}, {"buffer": 0, "byteOffset": 934084, "byteLength": 504, "byteStride": 24, "target": 34962}, {"buffer": 0, "byteOffset": 934588, "byteLength": 252, "byteStride": 12, "target": 34962}, {"buffer": 0, "byteOffset": 934840, "byteLength": 252, "byteStride": 12, "target": 34962}, {"buffer": 0, "byteOffset": 935092, "byteLength": 252, "byteStride": 12, "target": 34962}, {"buffer": 0, "byteOffset": 935344, "byteLength": 252, "byteStride": 12, "target": 34962}, {"buffer": 0, "byteOffset": 935596, "byteLength": 252, "byteStride": 12, "target": 34962}, {"buffer": 0, "byteOffset": 935848, "byteLength": 252, "byteStride": 12, "target": 34962}, {"buffer": 0, "byteOffset": 936100, "byteLength": 252, "byteStride": 12, "target": 34962}, {"buffer": 0, "byteOffset": 936352, "byteLength": 252, "byteStride": 12, "target": 34962}, {"buffer": 0, "byteOffset": 936604, "byteLength": 252, "byteStride": 12, "target": 34962}, {"buffer": 0, "byteOffset": 936856, "byteLength": 252, "byteStride": 12, "target": 34962}, {"buffer": 0, "byteOffset": 937108, "byteLength": 252, "byteStride": 12, "target": 34962}, {"buffer": 0, "byteOffset": 937360, "byteLength": 252, "byteStride": 12, "target": 34962}, {"buffer": 0, "byteOffset": 937612, "byteLength": 252, "byteStride": 12, "target": 34962}, {"buffer": 0, "byteOffset": 937864, "byteLength": 252, "byteStride": 12, "target": 34962}, {"buffer": 0, "byteOffset": 938116, "byteLength": 252, "byteStride": 12, "target": 34962}, {"buffer": 0, "byteOffset": 938368, "byteLength": 252, "byteStride": 12, "target": 34962}, {"buffer": 0, "byteOffset": 938620, "byteLength": 252, "byteStride": 12, "target": 34962}, {"buffer": 0, "byteOffset": 938872, "byteLength": 252, "byteStride": 12, "target": 34962}, {"buffer": 0, "byteOffset": 939124, "byteLength": 252, "byteStride": 12, "target": 34962}, {"buffer": 0, "byteOffset": 939376, "byteLength": 252, "byteStride": 12, "target": 34962}, {"buffer": 0, "byteOffset": 939628, "byteLength": 252, "byteStride": 12, "target": 34962}, {"buffer": 0, "byteOffset": 939880, "byteLength": 252, "byteStride": 12, "target": 34962}, {"buffer": 0, "byteOffset": 940132, "byteLength": 252, "byteStride": 12, "target": 34962}, {"buffer": 0, "byteOffset": 940384, "byteLength": 768, "byteStride": 32, "target": 34962}, {"buffer": 0, "byteOffset": 941152, "byteLength": 192, "byteStride": 8, "target": 34962}, {"buffer": 0, "byteOffset": 941344, "byteLength": 192, "byteStride": 8, "target": 34962}, {"buffer": 0, "byteOffset": 941536, "byteLength": 192, "byteStride": 8, "target": 34962}, {"buffer": 0, "byteOffset": 941728, "byteLength": 3072, "byteStride": 32, "target": 34962}, {"buffer": 0, "byteOffset": 944800, "byteLength": 768, "byteStride": 8, "target": 34962}, {"buffer": 0, "byteOffset": 945568, "byteLength": 3072, "byteStride": 32, "target": 34962}, {"buffer": 0, "byteOffset": 948640, "byteLength": 768, "byteStride": 8, "target": 34962}, {"buffer": 0, "byteOffset": 949408, "byteLength": 5352, "byteStride": 24, "target": 34962}, {"buffer": 0, "byteOffset": 954760, "byteLength": 5688, "byteStride": 24, "target": 34962}, {"buffer": 0, "byteOffset": 960448, "byteLength": 5448, "byteStride": 24, "target": 34962}, {"buffer": 0, "byteOffset": 965896, "byteLength": 5616, "byteStride": 24, "target": 34962}, {"buffer": 0, "byteOffset": 971512, "byteLength": 5760, "byteStride": 24, "target": 34962}, {"buffer": 0, "byteOffset": 977272, "byteLength": 5424, "byteStride": 24, "target": 34962}, {"buffer": 0, "byteOffset": 982696, "byteLength": 5616, "byteStride": 24, "target": 34962}, {"buffer": 0, "byteOffset": 988312, "byteLength": 5520, "byteStride": 24, "target": 34962}, {"buffer": 0, "byteOffset": 993832, "byteLength": 5568, "byteStride": 24, "target": 34962}, {"buffer": 0, "byteOffset": 999400, "byteLength": 5328, "byteStride": 24, "target": 34962}, {"buffer": 0, "byteOffset": 1004728, "byteLength": 5472, "byteStride": 24, "target": 34962}, {"buffer": 0, "byteOffset": 1010200, "byteLength": 5664, "byteStride": 24, "target": 34962}, {"buffer": 0, "byteOffset": 1015864, "byteLength": 5664, "byteStride": 24, "target": 34962}, {"buffer": 0, "byteOffset": 1021528, "byteLength": 5616, "byteStride": 24, "target": 34962}, {"buffer": 0, "byteOffset": 1027144, "byteLength": 2304, "byteStride": 32, "target": 34962}, {"buffer": 0, "byteOffset": 1029448, "byteLength": 79872, "byteStride": 32, "target": 34962}, {"buffer": 0, "byteOffset": 1109320, "byteLength": 3072, "byteStride": 32, "target": 34962}, {"buffer": 0, "byteOffset": 1112392, "byteLength": 768, "byteStride": 8, "target": 34962}, {"buffer": 0, "byteOffset": 1113160, "byteLength": 3072, "byteStride": 32, "target": 34962}, {"buffer": 0, "byteOffset": 1116232, "byteLength": 3072, "byteStride": 32, "target": 34962}, {"buffer": 0, "byteOffset": 1119304, "byteLength": 4608, "byteStride": 32, "target": 34962}, {"buffer": 0, "byteOffset": 1123912, "byteLength": 2880, "byteStride": 20, "target": 34962}, {"buffer": 0, "byteOffset": 1126792, "byteLength": 2880, "byteStride": 20, "target": 34962}, {"buffer": 0, "byteOffset": 1129672, "byteLength": 2880, "byteStride": 20, "target": 34962}, {"buffer": 0, "byteOffset": 1132552, "byteLength": 4608, "byteStride": 32, "target": 34962}, {"buffer": 0, "byteOffset": 1137160, "byteLength": 2880, "byteStride": 20, "target": 34962}, {"buffer": 0, "byteOffset": 1140040, "byteLength": 2880, "byteStride": 20, "target": 34962}, {"buffer": 0, "byteOffset": 1142920, "byteLength": 2880, "byteStride": 20, "target": 34962}, {"buffer": 0, "byteOffset": 1145800, "byteLength": 4608, "byteStride": 32, "target": 34962}, {"buffer": 0, "byteOffset": 1150408, "byteLength": 2880, "byteStride": 20, "target": 34962}, {"buffer": 0, "byteOffset": 1153288, "byteLength": 4608, "byteStride": 32, "target": 34962}, {"buffer": 0, "byteOffset": 1157896, "byteLength": 2880, "byteStride": 20, "target": 34962}, {"buffer": 0, "byteOffset": 1160776, "byteLength": 768, "byteStride": 32, "target": 34962}, {"buffer": 0, "byteOffset": 1161544, "byteLength": 480, "byteStride": 20, "target": 34962}, {"buffer": 0, "byteOffset": 1162024, "byteLength": 480, "byteStride": 20, "target": 34962}, {"buffer": 0, "byteOffset": 1162504, "byteLength": 480, "byteStride": 20, "target": 34962}, {"buffer": 0, "byteOffset": 1162984, "byteLength": 64352, "byteStride": 32, "target": 34962}, {"buffer": 0, "byteOffset": 1227336, "byteLength": 4608, "byteStride": 32, "target": 34962}, {"buffer": 0, "byteOffset": 1231944, "byteLength": 2880, "byteStride": 20, "target": 34962}, {"buffer": 0, "byteOffset": 1234824, "byteLength": 2880, "byteStride": 20, "target": 34962}, {"buffer": 0, "byteOffset": 1237704, "byteLength": 2880, "byteStride": 20, "target": 34962}, {"buffer": 0, "byteOffset": 1240584, "byteLength": 25088, "byteStride": 32, "target": 34962}, {"buffer": 0, "byteOffset": 1265672, "byteLength": 50176, "byteStride": 32, "target": 34962}, {"buffer": 0, "byteOffset": 1315848, "byteLength": 25088, "byteStride": 32, "target": 34962}, {"buffer": 0, "byteOffset": 1340936, "byteLength": 50176, "byteStride": 32, "target": 34962}, {"buffer": 0, "byteOffset": 1391112, "byteLength": 8064, "byteStride": 24, "target": 34962}, {"buffer": 0, "byteOffset": 1399176, "byteLength": 5376, "byteStride": 32, "target": 34962}, {"buffer": 0, "byteOffset": 1404552, "byteLength": 3360, "byteStride": 20, "target": 34962}, {"buffer": 0, "byteOffset": 1407912, "byteLength": 3840, "byteStride": 32, "target": 34962}, {"buffer": 0, "byteOffset": 1411752, "byteLength": 1488, "byteStride": 24, "target": 34962}, {"buffer": 0, "byteOffset": 1413240, "byteLength": 3136, "byteStride": 32, "target": 34962}, {"buffer": 0, "byteOffset": 1416376, "byteLength": 2368, "byteStride": 32, "target": 34962}, {"buffer": 0, "byteOffset": 1418744, "byteLength": 338724, "byteStride": 36, "target": 34962}, {"buffer": 0, "byteOffset": 1757468, "byteLength": 14880, "byteStride": 24, "target": 34962}, {"buffer": 0, "byteOffset": 1772348, "byteLength": 13680, "byteStride": 24, "target": 34962}, {"buffer": 0, "byteOffset": 1786028, "byteLength": 13680, "byteStride": 24, "target": 34962}, {"buffer": 0, "byteOffset": 1799708, "byteLength": 280544, "byteStride": 32, "target": 34962}, {"buffer": 0, "byteOffset": 2080252, "byteLength": 2240, "byteStride": 32, "target": 34962}, {"buffer": 0, "byteOffset": 2082492, "byteLength": 101952, "byteStride": 24, "target": 34962}, {"buffer": 0, "byteOffset": 2184444, "byteLength": 277184, "byteStride": 32, "target": 34962}, {"buffer": 0, "byteOffset": 2461628, "byteLength": 200256, "byteStride": 32, "target": 34962}, {"buffer": 0, "byteOffset": 2661884, "byteLength": 2149824, "byteStride": 32, "target": 34962}, {"buffer": 0, "byteOffset": 4811708, "byteLength": 101952, "byteStride": 24, "target": 34962}, {"buffer": 0, "byteOffset": 4913660, "byteLength": 3072, "byteStride": 32, "target": 34962}, {"buffer": 0, "byteOffset": 4916732, "byteLength": 3072, "byteStride": 32, "target": 34962}, {"buffer": 0, "byteOffset": 4919804, "byteLength": 3072, "byteStride": 32, "target": 34962}, {"buffer": 0, "byteOffset": 4922876, "byteLength": 768, "byteStride": 32, "target": 34962}, {"buffer": 0, "byteOffset": 4923644, "byteLength": 57472, "byteStride": 32, "target": 34962}, {"buffer": 0, "byteOffset": 4981116, "byteLength": 57472, "byteStride": 32, "target": 34962}, {"buffer": 0, "byteOffset": 5038588, "byteLength": 14976, "byteStride": 32, "target": 34962}, {"buffer": 0, "byteOffset": 5053564, "byteLength": 3584, "byteStride": 32, "target": 34962}, {"buffer": 0, "byteOffset": 5057148, "byteLength": 13344, "byteStride": 32, "target": 34962}, {"buffer": 0, "byteOffset": 5070492, "byteLength": 3072, "byteStride": 32, "target": 34962}, {"buffer": 0, "byteOffset": 5073564, "byteLength": 1920, "byteStride": 20, "target": 34962}], "samplers": [{"magFilter": 9729, "minFilter": 9987, "wrapS": 10497, "wrapT": 10497}, {"magFilter": 9729, "minFilter": 9987, "wrapS": 33071, "wrapT": 33071}], "textures": [{"sampler": 0, "extensions": {"KHR_texture_basisu": {"source": 1}}}, {"sampler": 0, "extensions": {"KHR_texture_basisu": {"source": 0}}}, {"sampler": 0, "extensions": {"KHR_texture_basisu": {"source": 3}}}, {"sampler": 0, "extensions": {"KHR_texture_basisu": {"source": 2}}}, {"sampler": 0, "extensions": {"KHR_texture_basisu": {"source": 4}}}, {"sampler": 0, "extensions": {"KHR_texture_basisu": {"source": 6}}}, {"sampler": 0, "extensions": {"KHR_texture_basisu": {"source": 5}}}, {"sampler": 0, "extensions": {"KHR_texture_basisu": {"source": 7}}}, {"sampler": 1, "extensions": {"KHR_texture_basisu": {"source": 8}}}, {"sampler": 1, "extensions": {"KHR_texture_basisu": {"source": 9}}}, {"sampler": 0, "extensions": {"KHR_texture_basisu": {"source": 11}}}, {"sampler": 0, "extensions": {"KHR_texture_basisu": {"source": 10}}}, {"sampler": 0, "extensions": {"KHR_texture_basisu": {"source": 12}}}], "images": [{"name": "normal", "mimeType": "image/ktx2", "uri": "normal_1.ktx2"}, {"name": "basecolor", "mimeType": "image/ktx2", "uri": "baseColor_1.ktx2"}, {"name": "normal", "mimeType": "image/ktx2", "uri": "normal_2.ktx2"}, {"name": "basecolor", "mimeType": "image/ktx2", "uri": "baseColor_2.ktx2"}, {"name": "metallic-roughness.png", "mimeType": "image/ktx2", "uri": "metallicRoughness_1.ktx2"}, {"name": "normal", "mimeType": "image/ktx2", "uri": "normal_3.ktx2"}, {"name": "basecolor", "mimeType": "image/ktx2", "uri": "baseColor_3.ktx2"}, {"name": "roughness", "mimeType": "image/ktx2", "uri": "metallicRoughness_2.ktx2"}, {"name": "ground_basecolor", "mimeType": "image/ktx2", "uri": "baseColor_4.ktx2"}, {"name": "ground_roughness", "mimeType": "image/ktx2", "uri": "metallicRoughness_3.ktx2"}, {"name": "normal", "mimeType": "image/ktx2", "uri": "normal_4.ktx2"}, {"name": "basecolor", "mimeType": "image/ktx2", "uri": "baseColor_5.ktx2"}, {"name": "roughness", "mimeType": "image/ktx2", "uri": "metallicRoughness_4.ktx2"}], "buffers": [{"uri": "scene.bin", "byteLength": 5075484}], "materials": [{"name": "MAT_Window_Interior", "doubleSided": true, "pbrMetallicRoughness": {"baseColorFactor": [0.019999999552965164, 0.01600000075995922, 0.013000000268220901, 1], "roughnessFactor": 0.75, "metallicFactor": 0}, "emissiveFactor": [0.14000000059604645, 0.09240000406503679, 0.04760000070333481]}, {"name": "MAT_Glass_Window", "alphaMode": "BLEND", "doubleSided": true, "pbrMetallicRoughness": {"baseColorFactor": [0.03500000014901161, 0.041999999433755875, 0.05000000074505806, 0.550000011920929], "roughnessFactor": 0.11999999731779099, "metallicFactor": 0}, "extensions": {"KHR_materials_specular": {"specularColorFactor": [1.0, 1.0, 1.0]}}}, {"name": "MAT_Stone_Cream", "pbrMetallicRoughness": {"metallicFactor": 0, "baseColorTexture": {"index": 0, "extensions": {"KHR_texture_transform": {"offset": [0, 0.7619047611951828], "scale": [0.2380952388048172, 0.2380952388048172]}}}}, "normalTexture": {"index": 1, "scale": 0.44999998807907104, "extensions": {"KHR_texture_transform": {"offset": [0, 0.7619047611951828], "scale": [0.2380952388048172, 0.2380952388048172]}}}}, {"name": "MAT_Cypress", "doubleSided": true, "pbrMetallicRoughness": {"baseColorFactor": [0.01899999938905239, 0.03799999877810478, 0.014999999664723873, 1], "roughnessFactor": 0.9200000166893005, "metallicFactor": 0}}, {"name": "MAT_Gold", "pbrMetallicRoughness": {"roughnessFactor": 0.550000011920929, "baseColorTexture": {"index": 2, "extensions": {"KHR_texture_transform": {"offset": [0, -0.4285714626312256], "scale": [1.4285714626312256, 1.4285714626312256]}}}, "metallicRoughnessTexture": {"index": 4, "extensions": {"KHR_texture_transform": {"offset": [0, -0.4285714626312256], "scale": [1.4285714626312256, 1.4285714626312256]}}}}, "normalTexture": {"index": 3, "scale": 0.800000011920929, "extensions": {"KHR_texture_transform": {"offset": [0, -0.4285714626312256], "scale": [1.4285714626312256, 1.4285714626312256]}}}}, {"name": "MAT_Wood_Dark", "pbrMetallicRoughness": {"metallicFactor": 0, "baseColorTexture": {"index": 5, "extensions": {"KHR_texture_transform": {"offset": [0, 0.09090906381607056], "scale": [0.9090909361839294, 0.9090909361839294]}}}, "metallicRoughnessTexture": {"index": 7, "extensions": {"KHR_texture_transform": {"offset": [0, 0.09090906381607056], "scale": [0.9090909361839294, 0.9090909361839294]}}}}, "normalTexture": {"index": 6, "scale": 0.8500000238418579, "extensions": {"KHR_texture_transform": {"offset": [0, 0.09090906381607056], "scale": [0.9090909361839294, 0.9090909361839294]}}}}, {"name": "MAT_Water", "doubleSided": true, "pbrMetallicRoughness": {"baseColorFactor": [0.029999999329447746, 0.05999999865889549, 0.07000000029802322, 1], "roughnessFactor": 0.019999999552965164, "metallicFactor": 0}, "extensions": {"KHR_materials_ior": {"ior": 1.3329999446868896}, "KHR_materials_transmission": {"transmissionFactor": 0.800000011920929}}}, {"name": "MAT_Ground", "pbrMetallicRoughness": {"metallicFactor": 0, "baseColorTexture": {"index": 8}, "metallicRoughnessTexture": {"index": 9}}}, {"name": "MAT_Hedge", "doubleSided": true, "pbrMetallicRoughness": {"baseColorFactor": [0.026000000536441803, 0.052000001072883606, 0.017999999225139618, 1], "roughnessFactor": 0.8999999761581421, "metallicFactor": 0}}, {"name": "MAT_Roof_Slate", "pbrMetallicRoughness": {"metallicFactor": 0, "baseColorTexture": {"index": 10}, "metallicRoughnessTexture": {"index": 12}}, "normalTexture": {"index": 11, "scale": 0.8999999761581421}}, {"name": "MAT_Roof", "pbrMetallicRoughness": {"metallicFactor": 0, "baseColorTexture": {"index": 10, "extensions": {"KHR_texture_transform": {"offset": [0, 0.375], "scale": [0.625, 0.625]}}}, "metallicRoughnessTexture": {"index": 12, "extensions": {"KHR_texture_transform": {"offset": [0, 0.375], "scale": [0.625, 0.625]}}}}, "normalTexture": {"index": 11, "extensions": {"KHR_texture_transform": {"offset": [0, 0.375], "scale": [0.625, 0.625]}}}}], "meshes": [{"name": "archback_B0.002", "primitives": [{"attributes": {"POSITION": 0, "NORMAL": 1}, "mode": 4, "material": 0, "indices": 2}]}, {"name": "archback_B1.002", "primitives": [{"attributes": {"POSITION": 46, "NORMAL": 1}, "mode": 4, "material": 0, "indices": 2}]}, {"name": "archback_B4.002", "primitives": [{"attributes": {"POSITION": 47, "NORMAL": 1}, "mode": 4, "material": 0, "indices": 2}]}, {"name": "archback_B5.002", "primitives": [{"attributes": {"POSITION": 48, "NORMAL": 1}, "mode": 4, "material": 0, "indices": 2}]}, {"name": "archback_F0.002", "primitives": [{"attributes": {"POSITION": 49, "NORMAL": 1}, "mode": 4, "material": 0, "indices": 2}]}, {"name": "archback_F1.002", "primitives": [{"attributes": {"POSITION": 50, "NORMAL": 1}, "mode": 4, "material": 0, "indices": 2}]}, {"name": "archback_F2.002", "primitives": [{"attributes": {"POSITION": 51, "NORMAL": 1}, "mode": 4, "material": 0, "indices": 2}]}, {"name": "archback_F3.002", "primitives": [{"attributes": {"POSITION": 52, "NORMAL": 1}, "mode": 4, "material": 0, "indices": 2}]}, {"name": "archback_L0", "primitives": [{"attributes": {"POSITION": 53, "NORMAL": 54}, "mode": 4, "material": 0, "indices": 2}]}, {"name": "archback_L1", "primitives": [{"attributes": {"POSITION": 55, "NORMAL": 54}, "mode": 4, "material": 0, "indices": 2}]}, {"name": "archback_L2", "primitives": [{"attributes": {"POSITION": 56, "NORMAL": 54}, "mode": 4, "material": 0, "indices": 2}]}, {"name": "archback_L3", "primitives": [{"attributes": {"POSITION": 57, "NORMAL": 54}, "mode": 4, "material": 0, "indices": 2}]}, {"name": "archback_R0", "primitives": [{"attributes": {"POSITION": 58, "NORMAL": 54}, "mode": 4, "material": 0, "indices": 2}]}, {"name": "archback_R1", "primitives": [{"attributes": {"POSITION": 59, "NORMAL": 54}, "mode": 4, "material": 0, "indices": 2}]}, {"name": "archback_R2", "primitives": [{"attributes": {"POSITION": 60, "NORMAL": 54}, "mode": 4, "material": 0, "indices": 2}]}, {"name": "archback_R3", "primitives": [{"attributes": {"POSITION": 61, "NORMAL": 54}, "mode": 4, "material": 0, "indices": 2}]}, {"name": "archglass_B0.002", "primitives": [{"attributes": {"POSITION": 62, "NORMAL": 1}, "mode": 4, "material": 1, "indices": 2}]}, {"name": "archglass_B1.002", "primitives": [{"attributes": {"POSITION": 63, "NORMAL": 1}, "mode": 4, "material": 1, "indices": 2}]}, {"name": "archglass_B4.002", "primitives": [{"attributes": {"POSITION": 64, "NORMAL": 1}, "mode": 4, "material": 1, "indices": 2}]}, {"name": "archglass_B5.002", "primitives": [{"attributes": {"POSITION": 65, "NORMAL": 1}, "mode": 4, "material": 1, "indices": 2}]}, {"name": "archglass_F0.002", "primitives": [{"attributes": {"POSITION": 66, "NORMAL": 1}, "mode": 4, "material": 1, "indices": 2}]}, {"name": "archglass_F1.002", "primitives": [{"attributes": {"POSITION": 67, "NORMAL": 1}, "mode": 4, "material": 1, "indices": 2}]}, {"name": "archglass_F2.002", "primitives": [{"attributes": {"POSITION": 68, "NORMAL": 1}, "mode": 4, "material": 1, "indices": 2}]}, {"name": "archglass_F3.002", "primitives": [{"attributes": {"POSITION": 69, "NORMAL": 1}, "mode": 4, "material": 1, "indices": 2}]}, {"name": "archglass_L0", "primitives": [{"attributes": {"POSITION": 70, "NORMAL": 54}, "mode": 4, "material": 1, "indices": 2}]}, {"name": "archglass_L1", "primitives": [{"attributes": {"POSITION": 71, "NORMAL": 54}, "mode": 4, "material": 1, "indices": 2}]}, {"name": "archglass_L2", "primitives": [{"attributes": {"POSITION": 72, "NORMAL": 54}, "mode": 4, "material": 1, "indices": 2}]}, {"name": "archglass_L3", "primitives": [{"attributes": {"POSITION": 73, "NORMAL": 54}, "mode": 4, "material": 1, "indices": 2}]}, {"name": "archglass_R0", "primitives": [{"attributes": {"POSITION": 74, "NORMAL": 54}, "mode": 4, "material": 1, "indices": 2}]}, {"name": "archglass_R1", "primitives": [{"attributes": {"POSITION": 75, "NORMAL": 54}, "mode": 4, "material": 1, "indices": 2}]}, {"name": "archglass_R2", "primitives": [{"attributes": {"POSITION": 76, "NORMAL": 54}, "mode": 4, "material": 1, "indices": 2}]}, {"name": "archglass_R3", "primitives": [{"attributes": {"POSITION": 77, "NORMAL": 54}, "mode": 4, "material": 1, "indices": 2}]}, {"name": "cupola_corner_0", "primitives": [{"attributes": {"POSITION": 78, "NORMAL": 79, "TEXCOORD_0": 80}, "mode": 4, "material": 2, "indices": 3}]}, {"name": "cupola_corner_1", "primitives": [{"attributes": {"TEXCOORD_0": 81, "POSITION": 78, "NORMAL": 79}, "mode": 4, "material": 2, "indices": 3}]}, {"name": "cupola_corner_2", "primitives": [{"attributes": {"TEXCOORD_0": 82, "POSITION": 78, "NORMAL": 79}, "mode": 4, "material": 2, "indices": 3}]}, {"name": "cupola_corner_3", "primitives": [{"attributes": {"TEXCOORD_0": 83, "POSITION": 78, "NORMAL": 79}, "mode": 4, "material": 2, "indices": 3}]}, {"name": "cupola_parapet_0", "primitives": [{"attributes": {"POSITION": 84, "NORMAL": 85, "TEXCOORD_0": 86}, "mode": 4, "material": 2, "indices": 4}]}, {"name": "cupola_parapet_1", "primitives": [{"attributes": {"TEXCOORD_0": 87, "POSITION": 84, "NORMAL": 85}, "mode": 4, "material": 2, "indices": 4}]}, {"name": "cupola_parapet_2", "primitives": [{"attributes": {"POSITION": 88, "NORMAL": 89, "TEXCOORD_0": 90}, "mode": 4, "material": 2, "indices": 4}]}, {"name": "cupola_parapet_3", "primitives": [{"attributes": {"TEXCOORD_0": 91, "POSITION": 88, "NORMAL": 89}, "mode": 4, "material": 2, "indices": 4}]}, {"name": "cyp_0_0", "primitives": [{"attributes": {"POSITION": 92, "NORMAL": 93}, "mode": 4, "material": 3, "indices": 5}]}, {"name": "cyp_0_1", "primitives": [{"attributes": {"POSITION": 94, "NORMAL": 95}, "mode": 4, "material": 3, "indices": 6}]}, {"name": "cyp_0_2", "primitives": [{"attributes": {"POSITION": 96, "NORMAL": 97}, "mode": 4, "material": 3, "indices": 7}]}, {"name": "cyp_0_3", "primitives": [{"attributes": {"POSITION": 98, "NORMAL": 99}, "mode": 4, "material": 3, "indices": 8}]}, {"name": "cyp_0_4", "primitives": [{"attributes": {"POSITION": 100, "NORMAL": 101}, "mode": 4, "material": 3, "indices": 9}]}, {"name": "cyp_1_0", "primitives": [{"attributes": {"POSITION": 102, "NORMAL": 103}, "mode": 4, "material": 3, "indices": 10}]}, {"name": "cyp_1_1", "primitives": [{"attributes": {"POSITION": 104, "NORMAL": 105}, "mode": 4, "material": 3, "indices": 11}]}, {"name": "cyp_1_2", "primitives": [{"attributes": {"POSITION": 106, "NORMAL": 107}, "mode": 4, "material": 3, "indices": 12}]}, {"name": "cyp_1_3", "primitives": [{"attributes": {"POSITION": 108, "NORMAL": 109}, "mode": 4, "material": 3, "indices": 13}]}, {"name": "cyp_1_4", "primitives": [{"attributes": {"POSITION": 110, "NORMAL": 111}, "mode": 4, "material": 3, "indices": 14}]}, {"name": "cyp_b_0.001", "primitives": [{"attributes": {"POSITION": 112, "NORMAL": 113}, "mode": 4, "material": 3, "indices": 15}]}, {"name": "cyp_b_1.001", "primitives": [{"attributes": {"POSITION": 114, "NORMAL": 115}, "mode": 4, "material": 3, "indices": 16}]}, {"name": "cyp_b_2.001", "primitives": [{"attributes": {"POSITION": 116, "NORMAL": 117}, "mode": 4, "material": 3, "indices": 17}]}, {"name": "cyp_b_3.001", "primitives": [{"attributes": {"POSITION": 118, "NORMAL": 119}, "mode": 4, "material": 3, "indices": 18}]}, {"name": "door_handle_0", "primitives": [{"attributes": {"POSITION": 120, "NORMAL": 121, "TEXCOORD_0": 122}, "mode": 4, "material": 4, "indices": 19}]}, {"name": "door_relief", "primitives": [{"attributes": {"POSITION": 123, "NORMAL": 124, "TEXCOORD_0": 125}, "mode": 4, "material": 5, "indices": 20}]}, {"name": "entry_cheek_1", "primitives": [{"attributes": {"POSITION": 126, "NORMAL": 127, "TEXCOORD_0": 128}, "mode": 4, "material": 2, "indices": 4}]}, {"name": "entry_cheek_-1", "primitives": [{"attributes": {"TEXCOORD_0": 129, "POSITION": 126, "NORMAL": 127}, "mode": 4, "material": 2, "indices": 4}]}, {"name": "entry_step_0.001", "primitives": [{"attributes": {"POSITION": 130, "NORMAL": 131, "TEXCOORD_0": 132}, "mode": 4, "material": 2, "indices": 4}]}, {"name": "entry_step_1.001", "primitives": [{"attributes": {"POSITION": 133, "NORMAL": 134, "TEXCOORD_0": 135}, "mode": 4, "material": 2, "indices": 4}]}, {"name": "finial_cav_0", "primitives": [{"attributes": {"POSITION": 136, "NORMAL": 137, "TEXCOORD_0": 138}, "mode": 4, "material": 2, "indices": 21}]}, {"name": "finial_cav_1", "primitives": [{"attributes": {"POSITION": 139, "TEXCOORD_0": 140, "NORMAL": 137}, "mode": 4, "material": 2, "indices": 21}]}, {"name": "finial_cav_2", "primitives": [{"attributes": {"POSITION": 141, "TEXCOORD_0": 142, "NORMAL": 137}, "mode": 4, "material": 2, "indices": 21}]}, {"name": "finial_cav_3", "primitives": [{"attributes": {"POSITION": 143, "TEXCOORD_0": 144, "NORMAL": 137}, "mode": 4, "material": 2, "indices": 21}]}, {"name": "finial_collar_0", "primitives": [{"attributes": {"POSITION": 145, "NORMAL": 146, "TEXCOORD_0": 147}, "mode": 4, "material": 4, "indices": 21}]}, {"name": "finial_collar_1", "primitives": [{"attributes": {"POSITION": 148, "TEXCOORD_0": 149, "NORMAL": 146}, "mode": 4, "material": 4, "indices": 21}]}, {"name": "finial_collar_2", "primitives": [{"attributes": {"POSITION": 150, "TEXCOORD_0": 151, "NORMAL": 146}, "mode": 4, "material": 4, "indices": 21}]}, {"name": "finial_collar_3", "primitives": [{"attributes": {"POSITION": 152, "TEXCOORD_0": 153, "NORMAL": 146}, "mode": 4, "material": 4, "indices": 21}]}, {"name": "finial_neck_0", "primitives": [{"attributes": {"POSITION": 154, "NORMAL": 155, "TEXCOORD_0": 156}, "mode": 4, "material": 2, "indices": 21}]}, {"name": "finial_neck_1", "primitives": [{"attributes": {"POSITION": 157, "TEXCOORD_0": 158, "NORMAL": 155}, "mode": 4, "material": 2, "indices": 21}]}, {"name": "finial_neck_2", "primitives": [{"attributes": {"POSITION": 159, "NORMAL": 160, "TEXCOORD_0": 161}, "mode": 4, "material": 2, "indices": 21}]}, {"name": "finial_neck_3", "primitives": [{"attributes": {"POSITION": 162, "TEXCOORD_0": 163, "NORMAL": 160}, "mode": 4, "material": 2, "indices": 21}]}, {"name": "finial_plinth_0", "primitives": [{"attributes": {"POSITION": 164, "NORMAL": 165, "TEXCOORD_0": 166}, "mode": 4, "material": 2, "indices": 22}]}, {"name": "finial_plinth_1", "primitives": [{"attributes": {"POSITION": 167, "TEXCOORD_0": 168, "NORMAL": 165}, "mode": 4, "material": 2, "indices": 22}]}, {"name": "finial_plinth_2", "primitives": [{"attributes": {"POSITION": 169, "TEXCOORD_0": 170, "NORMAL": 165}, "mode": 4, "material": 2, "indices": 22}]}, {"name": "finial_plinth_3", "primitives": [{"attributes": {"POSITION": 171, "TEXCOORD_0": 172, "NORMAL": 165}, "mode": 4, "material": 2, "indices": 22}]}, {"name": "KIT_finial_tip_M", "primitives": [{"attributes": {"POSITION": 173, "NORMAL": 174, "TEXCOORD_0": 175}, "mode": 4, "material": 4, "indices": 23}]}, {"name": "finial_urn_0", "primitives": [{"attributes": {"POSITION": 176, "NORMAL": 177, "TEXCOORD_0": 178}, "mode": 4, "material": 2, "indices": 21}]}, {"name": "finial_urn_1", "primitives": [{"attributes": {"POSITION": 179, "TEXCOORD_0": 180, "NORMAL": 177}, "mode": 4, "material": 2, "indices": 21}]}, {"name": "finial_urn_2", "primitives": [{"attributes": {"POSITION": 181, "TEXCOORD_0": 182, "NORMAL": 177}, "mode": 4, "material": 2, "indices": 21}]}, {"name": "finial_urn_3", "primitives": [{"attributes": {"POSITION": 183, "TEXCOORD_0": 184, "NORMAL": 177}, "mode": 4, "material": 2, "indices": 21}]}, {"name": "fount_apron.002", "primitives": [{"attributes": {"POSITION": 185, "NORMAL": 186, "TEXCOORD_0": 187}, "mode": 4, "material": 2, "indices": 24}]}, {"name": "fount_cope.002", "primitives": [{"attributes": {"POSITION": 188, "NORMAL": 189, "TEXCOORD_0": 190}, "mode": 4, "material": 2, "indices": 25}]}, {"name": "fount_floor", "primitives": [{"attributes": {"POSITION": 191, "NORMAL": 192, "TEXCOORD_0": 193}, "mode": 4, "material": 2, "indices": 24}]}, {"name": "fount_wall.001", "primitives": [{"attributes": {"POSITION": 194, "NORMAL": 195, "TEXCOORD_0": 196}, "mode": 4, "material": 2, "indices": 25}]}, {"name": "fount_water.001", "primitives": [{"attributes": {"POSITION": 197, "NORMAL": 198}, "mode": 4, "material": 6, "indices": 26}]}, {"name": "fountain_bowl.001", "primitives": [{"attributes": {"POSITION": 199, "NORMAL": 200, "TEXCOORD_0": 201}, "mode": 4, "material": 2, "indices": 27}]}, {"name": "fountain_bowl_lip.001", "primitives": [{"attributes": {"POSITION": 202, "TEXCOORD_0": 203, "NORMAL": 200}, "mode": 4, "material": 2, "indices": 27}]}, {"name": "fountain_cap", "primitives": [{"attributes": {"POSITION": 204, "NORMAL": 205, "TEXCOORD_0": 206}, "mode": 4, "material": 2, "indices": 28}]}, {"name": "fountain_jet.001", "primitives": [{"attributes": {"POSITION": 207, "NORMAL": 208}, "mode": 4, "material": 6, "indices": 29}]}, {"name": "fountain_stem.001", "primitives": [{"attributes": {"POSITION": 209, "NORMAL": 210, "TEXCOORD_0": 211}, "mode": 4, "material": 2, "indices": 30}]}, {"name": "fountain_stem2.001", "primitives": [{"attributes": {"POSITION": 212, "NORMAL": 213, "TEXCOORD_0": 214}, "mode": 4, "material": 2, "indices": 31}]}, {"name": "ground_plane", "primitives": [{"attributes": {"POSITION": 215, "NORMAL": 216, "TEXCOORD_0": 217, "COLOR_0": 218}, "mode": 4, "material": 7, "indices": 32}]}, {"name": "hedge_b.001", "primitives": [{"attributes": {"POSITION": 219, "NORMAL": 220}, "mode": 4, "material": 8, "indices": 33}]}, {"name": "hedge_l.001", "primitives": [{"attributes": {"POSITION": 221, "NORMAL": 222}, "mode": 4, "material": 8, "indices": 34}]}, {"name": "hedge_r.001", "primitives": [{"attributes": {"POSITION": 223, "NORMAL": 224}, "mode": 4, "material": 8, "indices": 34}]}, {"name": "lion_frieze_M", "primitives": [{"attributes": {"POSITION": 225, "NORMAL": 226, "TEXCOORD_0": 227}, "mode": 4, "material": 2, "indices": 35}]}, {"name": "mansion_doors", "primitives": [{"attributes": {"POSITION": 228, "NORMAL": 229, "TEXCOORD_0": 230}, "mode": 4, "material": 5, "indices": 36}]}, {"name": "mansion_glass", "primitives": [{"attributes": {"POSITION": 231, "NORMAL": 232}, "mode": 4, "material": 1, "indices": 37}]}, {"name": "mansion_gold", "primitives": [{"attributes": {"POSITION": 233, "NORMAL": 234, "TEXCOORD_0": 235}, "mode": 4, "material": 4, "indices": 38}]}, {"name": "mansion_roof", "primitives": [{"attributes": {"POSITION": 236, "NORMAL": 237, "TEXCOORD_0": 238}, "mode": 4, "material": 9, "indices": 39}]}, {"name": "mansion_walls", "primitives": [{"attributes": {"POSITION": 239, "NORMAL": 240, "TEXCOORD_0": 241}, "mode": 4, "material": 2, "indices": 40}]}, {"name": "mansion_glass.002", "primitives": [{"attributes": {"POSITION": 242, "NORMAL": 243}, "mode": 4, "material": 0, "indices": 37}]}, {"name": "portico_architrave", "primitives": [{"attributes": {"POSITION": 244, "NORMAL": 245, "TEXCOORD_0": 246}, "mode": 4, "material": 2, "indices": 41}]}, {"name": "portico_cornice", "primitives": [{"attributes": {"POSITION": 247, "NORMAL": 248, "TEXCOORD_0": 249}, "mode": 4, "material": 2, "indices": 41}]}, {"name": "portico_cymatium", "primitives": [{"attributes": {"POSITION": 250, "NORMAL": 251, "TEXCOORD_0": 252}, "mode": 4, "material": 2, "indices": 41}]}, {"name": "roof_peak", "primitives": [{"attributes": {"POSITION": 253, "NORMAL": 254, "TEXCOORD_0": 255}, "mode": 4, "material": 9, "indices": 22}]}, {"name": "KIT_quoin_x_M", "primitives": [{"attributes": {"POSITION": 256, "NORMAL": 257, "TEXCOORD_0": 258}, "mode": 4, "material": 2, "indices": 42}]}, {"name": "KIT_quoin_x_M.001", "primitives": [{"attributes": {"POSITION": 259, "NORMAL": 260, "TEXCOORD_0": 261}, "mode": 4, "material": 2, "indices": 42}]}, {"name": "spire_body.002", "primitives": [{"attributes": {"POSITION": 262, "NORMAL": 263, "TEXCOORD_0": 264}, "mode": 4, "material": 10, "indices": 43}]}, {"name": "spire_plinth", "primitives": [{"attributes": {"POSITION": 265, "NORMAL": 266, "TEXCOORD_0": 267}, "mode": 4, "material": 2, "indices": 44}]}, {"name": "spire_tip.002", "primitives": [{"attributes": {"POSITION": 268, "NORMAL": 269, "TEXCOORD_0": 270}, "mode": 4, "material": 4, "indices": 45}]}, {"name": "terrace_lower", "primitives": [{"attributes": {"POSITION": 271, "NORMAL": 272, "TEXCOORD_0": 273}, "mode": 4, "material": 2, "indices": 4}]}, {"name": "terrace_upper", "primitives": [{"attributes": {"POSITION": 274, "TEXCOORD_0": 275, "NORMAL": 131}, "mode": 4, "material": 2, "indices": 4}]}], "nodes": [{"name": "archback_B0", "mesh": 0}, {"name": "archback_B1", "mesh": 1}, {"name": "archback_B4", "mesh": 2}, {"name": "archback_B5", "mesh": 3}, {"name": "archback_F0", "mesh": 4}, {"name": "archback_F1", "mesh": 5}, {"name": "archback_F2", "mesh": 6}, {"name": "archback_F3", "mesh": 7}, {"name": "archback_L0", "mesh": 8}, {"name": "archback_L1", "mesh": 9}, {"name": "archback_L2", "mesh": 10}, {"name": "archback_L3", "mesh": 11}, {"name": "archback_R0", "mesh": 12}, {"name": "archback_R1", "mesh": 13}, {"name": "archback_R2", "mesh": 14}, {"name": "archback_R3", "mesh": 15}, {"name": "archglass_B0", "mesh": 16}, {"name": "archglass_B1", "mesh": 17}, {"name": "archglass_B4", "mesh": 18}, {"name": "archglass_B5", "mesh": 19}, {"name": "archglass_F0", "mesh": 20}, {"name": "archglass_F1", "mesh": 21}, {"name": "archglass_F2", "mesh": 22}, {"name": "archglass_F3", "mesh": 23}, {"name": "archglass_L0", "mesh": 24}, {"name": "archglass_L1", "mesh": 25}, {"name": "archglass_L2", "mesh": 26}, {"name": "archglass_L3", "mesh": 27}, {"name": "archglass_R0", "mesh": 28}, {"name": "archglass_R1", "mesh": 29}, {"name": "archglass_R2", "mesh": 30}, {"name": "archglass_R3", "mesh": 31}, {"name": "cupola_corner_0", "translation": [-2, 7.840000152587891, 2], "mesh": 32}, {"name": "cupola_corner_1", "translation": [2, 7.840000152587891, 2], "mesh": 33}, {"name": "cupola_corner_2", "translation": [-2, 7.840000152587891, -2], "mesh": 34}, {"name": "cupola_corner_3", "translation": [2, 7.840000152587891, -2], "mesh": 35}, {"name": "cupola_parapet_0", "translation": [0, 7.78000020980835, 2], "mesh": 36}, {"name": "cupola_parapet_1", "translation": [0, 7.78000020980835, -2], "mesh": 37}, {"name": "cupola_parapet_2", "translation": [-2, 7.78000020980835, 0], "mesh": 38}, {"name": "cupola_parapet_3", "translation": [2, 7.78000020980835, 0], "mesh": 39}, {"name": "cyp_0_0", "mesh": 40}, {"name": "cyp_0_1", "mesh": 41}, {"name": "cyp_0_2", "mesh": 42}, {"name": "cyp_0_3", "mesh": 43}, {"name": "cyp_0_4", "mesh": 44}, {"name": "cyp_1_0", "mesh": 45}, {"name": "cyp_1_1", "mesh": 46}, {"name": "cyp_1_2", "mesh": 47}, {"name": "cyp_1_3", "mesh": 48}, {"name": "cyp_1_4", "mesh": 49}, {"name": "cyp_b_0", "mesh": 50}, {"name": "cyp_b_1", "mesh": 51}, {"name": "cyp_b_2", "mesh": 52}, {"name": "cyp_b_3", "mesh": 53}, {"name": "door_handle_0", "translation": [-0.20000000298023224, 1.9199999570846558, 5.139999866485596], "rotation": [0.7071068286895752, 0, 0, 0.7071068286895752], "mesh": 54}, {"name": "door_handle_1", "translation": [0.20000000298023224, 1.9199999570846558, 5.139999866485596], "rotation": [0.7071068286895752, 0, 0, 0.7071068286895752], "mesh": 54}, {"name": "door_relief", "mesh": 55}, {"name": "entry_cheek_1", "translation": [2.75, 0.5, 6.199999809265137], "mesh": 56}, {"name": "entry_cheek_-1", "translation": [-2.75, 0.5, 6.199999809265137], "mesh": 57}, {"name": "entry_step_0", "translation": [0, 0.45500001311302185, 6.349999904632568], "mesh": 58}, {"name": "entry_step_1", "translation": [0, 0.5249999761581421, 5.949999809265137], "mesh": 59}, {"name": "finial_cav_0", "mesh": 60}, {"name": "finial_cav_1", "mesh": 61}, {"name": "finial_cav_2", "mesh": 62}, {"name": "finial_cav_3", "mesh": 63}, {"name": "finial_collar_0", "mesh": 64}, {"name": "finial_collar_1", "mesh": 65}, {"name": "finial_collar_2", "mesh": 66}, {"name": "finial_collar_3", "mesh": 67}, {"name": "finial_neck_0", "mesh": 68}, {"name": "finial_neck_1", "mesh": 69}, {"name": "finial_neck_2", "mesh": 70}, {"name": "finial_neck_3", "mesh": 71}, {"name": "finial_plinth_0", "mesh": 72}, {"name": "finial_plinth_1", "mesh": 73}, {"name": "finial_plinth_2", "mesh": 74}, {"name": "finial_plinth_3", "mesh": 75}, {"name": "finial_tip_0", "translation": [-2, 8.760000228881836, 2], "mesh": 76}, {"name": "finial_tip_1", "translation": [2, 8.760000228881836, 2], "mesh": 76}, {"name": "finial_tip_2", "translation": [-2, 8.760000228881836, -2], "mesh": 76}, {"name": "finial_tip_3", "translation": [2, 8.760000228881836, -2], "mesh": 76}, {"name": "finial_urn_0", "mesh": 77}, {"name": "finial_urn_1", "mesh": 78}, {"name": "finial_urn_2", "mesh": 79}, {"name": "finial_urn_3", "mesh": 80}, {"name": "fount_apron", "mesh": 81}, {"name": "fount_cope", "mesh": 82}, {"name": "fount_floor", "mesh": 83}, {"name": "fount_wall", "mesh": 84}, {"name": "fount_water", "mesh": 85}, {"name": "fountain_bowl", "translation": [0, 1.5800000429153442, 13.199999809265137], "mesh": 86}, {"name": "fountain_bowl_lip", "translation": [0, 1.6299999952316284, 13.199999809265137], "mesh": 87}, {"name": "fountain_cap", "translation": [0, 2.2300000190734863, 13.199999809265137], "mesh": 88}, {"name": "fountain_jet", "translation": [0, 2.4700000286102295, 13.199999809265137], "mesh": 89}, {"name": "fountain_stem", "translation": [0, 1.0299999713897705, 13.199999809265137], "mesh": 90}, {"name": "fountain_stem2", "translation": [0, 1.940000057220459, 13.199999809265137], "mesh": 91}, {"name": "ground_plane", "mesh": 92}, {"name": "hedge_b", "mesh": 93}, {"name": "hedge_l", "mesh": 94}, {"name": "hedge_r", "mesh": 95}, {"name": "lion_frieze", "translation": [0, 3.5999999046325684, 5.739999771118164], "mesh": 96}, {"name": "mansion_doors", "mesh": 97}, {"name": "mansion_glass", "mesh": 98}, {"name": "mansion_gold", "mesh": 99}, {"name": "mansion_roof", "mesh": 100}, {"name": "mansion_walls", "mesh": 101}, {"name": "mansion_window_back", "mesh": 102}, {"name": "portico_architrave", "mesh": 103}, {"name": "portico_cornice", "mesh": 104}, {"name": "portico_cymatium", "mesh": 105}, {"name": "roof_peak", "mesh": 106}, {"name": "rustic_b_00", "translation": [-9.148148536682129, 0.14000000059604645, -6.445000171661377], "mesh": 107}, {"name": "rustic_b_01", "translation": [-8.44444465637207, 0.14000000059604645, -6.445000171661377], "mesh": 107}, {"name": "rustic_b_02", "translation": [-7.740740776062012, 0.14000000059604645, -6.445000171661377], "mesh": 107}, {"name": "rustic_b_03", "translation": [-7.037036895751953, 0.14000000059604645, -6.445000171661377], "mesh": 107}, {"name": "rustic_b_04", "translation": [-6.333333492279053, 0.14000000059604645, -6.445000171661377], "mesh": 107}, {"name": "rustic_b_05", "translation": [-5.629629611968994, 0.14000000059604645, -6.445000171661377], "mesh": 107}, {"name": "rustic_b_06", "translation": [-4.9259257316589355, 0.14000000059604645, -6.445000171661377], "mesh": 107}, {"name": "rustic_b_07", "translation": [-4.222222328186035, 0.14000000059604645, -6.445000171661377], "mesh": 107}, {"name": "rustic_b_08", "translation": [-3.5185184478759766, 0.14000000059604645, -6.445000171661377], "mesh": 107}, {"name": "rustic_b_09", "translation": [-2.814814805984497, 0.14000000059604645, -6.445000171661377], "mesh": 107}, {"name": "rustic_b_10", "translation": [-2.1111111640930176, 0.14000000059604645, -6.445000171661377], "mesh": 107}, {"name": "rustic_b_11", "translation": [-1.4074074029922485, 0.14000000059604645, -6.445000171661377], "mesh": 107}, {"name": "rustic_b_12", "translation": [-0.7037037014961243, 0.14000000059604645, -6.445000171661377], "mesh": 107}, {"name": "rustic_b_13", "translation": [0, 0.14000000059604645, -6.445000171661377], "mesh": 107}, {"name": "rustic_b_14", "translation": [0.7037037014961243, 0.14000000059604645, -6.445000171661377], "mesh": 107}, {"name": "rustic_b_15", "translation": [1.4074074029922485, 0.14000000059604645, -6.445000171661377], "mesh": 107}, {"name": "rustic_b_16", "translation": [2.1111111640930176, 0.14000000059604645, -6.445000171661377], "mesh": 107}, {"name": "rustic_b_17", "translation": [2.814814805984497, 0.14000000059604645, -6.445000171661377], "mesh": 107}, {"name": "rustic_b_18", "translation": [3.5185184478759766, 0.14000000059604645, -6.445000171661377], "mesh": 107}, {"name": "rustic_b_19", "translation": [4.222222328186035, 0.14000000059604645, -6.445000171661377], "mesh": 107}, {"name": "rustic_b_20", "translation": [4.9259257316589355, 0.14000000059604645, -6.445000171661377], "mesh": 107}, {"name": "rustic_b_21", "translation": [5.629629611968994, 0.14000000059604645, -6.445000171661377], "mesh": 107}, {"name": "rustic_b_22", "translation": [6.333333492279053, 0.14000000059604645, -6.445000171661377], "mesh": 107}, {"name": "rustic_b_23", "translation": [7.037036895751953, 0.14000000059604645, -6.445000171661377], "mesh": 107}, {"name": "rustic_b_24", "translation": [7.740740776062012, 0.14000000059604645, -6.445000171661377], "mesh": 107}, {"name": "rustic_b_25", "translation": [8.44444465637207, 0.14000000059604645, -6.445000171661377], "mesh": 107}, {"name": "rustic_b_26", "translation": [9.148148536682129, 0.14000000059604645, -6.445000171661377], "mesh": 107}, {"name": "rustic_f_00", "translation": [-9.148148536682129, 0.14000000059604645, 8.244999885559082], "mesh": 107}, {"name": "rustic_f_01", "translation": [-8.44444465637207, 0.14000000059604645, 8.244999885559082], "mesh": 107}, {"name": "rustic_f_02", "translation": [-7.740740776062012, 0.14000000059604645, 8.244999885559082], "mesh": 107}, {"name": "rustic_f_03", "translation": [-7.037036895751953, 0.14000000059604645, 8.244999885559082], "mesh": 107}, {"name": "rustic_f_04", "translation": [-6.333333492279053, 0.14000000059604645, 8.244999885559082], "mesh": 107}, {"name": "rustic_f_05", "translation": [-5.629629611968994, 0.14000000059604645, 8.244999885559082], "mesh": 107}, {"name": "rustic_f_06", "translation": [-4.9259257316589355, 0.14000000059604645, 8.244999885559082], "mesh": 107}, {"name": "rustic_f_07", "translation": [-4.222222328186035, 0.14000000059604645, 8.244999885559082], "mesh": 107}, {"name": "rustic_f_08", "translation": [-3.5185184478759766, 0.14000000059604645, 8.244999885559082], "mesh": 107}, {"name": "rustic_f_09", "translation": [-2.814814805984497, 0.14000000059604645, 8.244999885559082], "mesh": 107}, {"name": "rustic_f_10", "translation": [-2.1111111640930176, 0.14000000059604645, 8.244999885559082], "mesh": 107}, {"name": "rustic_f_11", "translation": [-1.4074074029922485, 0.14000000059604645, 8.244999885559082], "mesh": 107}, {"name": "rustic_f_12", "translation": [-0.7037037014961243, 0.14000000059604645, 8.244999885559082], "mesh": 107}, {"name": "rustic_f_13", "translation": [0, 0.14000000059604645, 8.244999885559082], "mesh": 107}, {"name": "rustic_f_14", "translation": [0.7037037014961243, 0.14000000059604645, 8.244999885559082], "mesh": 107}, {"name": "rustic_f_15", "translation": [1.4074074029922485, 0.14000000059604645, 8.244999885559082], "mesh": 107}, {"name": "rustic_f_16", "translation": [2.1111111640930176, 0.14000000059604645, 8.244999885559082], "mesh": 107}, {"name": "rustic_f_17", "translation": [2.814814805984497, 0.14000000059604645, 8.244999885559082], "mesh": 107}, {"name": "rustic_f_18", "translation": [3.5185184478759766, 0.14000000059604645, 8.244999885559082], "mesh": 107}, {"name": "rustic_f_19", "translation": [4.222222328186035, 0.14000000059604645, 8.244999885559082], "mesh": 107}, {"name": "rustic_f_20", "translation": [4.9259257316589355, 0.14000000059604645, 8.244999885559082], "mesh": 107}, {"name": "rustic_f_21", "translation": [5.629629611968994, 0.14000000059604645, 8.244999885559082], "mesh": 107}, {"name": "rustic_f_22", "translation": [6.333333492279053, 0.14000000059604645, 8.244999885559082], "mesh": 107}, {"name": "rustic_f_23", "translation": [7.037036895751953, 0.14000000059604645, 8.244999885559082], "mesh": 107}, {"name": "rustic_f_24", "translation": [7.740740776062012, 0.14000000059604645, 8.244999885559082], "mesh": 107}, {"name": "rustic_f_25", "translation": [8.44444465637207, 0.14000000059604645, 8.244999885559082], "mesh": 107}, {"name": "rustic_f_26", "translation": [9.148148536682129, 0.14000000059604645, 8.244999885559082], "mesh": 107}, {"name": "rustic_l_00", "translation": [-9.545000076293945, 0.14000000059604645, 7.852380752563477], "mesh": 108}, {"name": "rustic_l_01", "translation": [-9.545000076293945, 0.14000000059604645, 7.157142639160156], "mesh": 108}, {"name": "rustic_l_02", "translation": [-9.545000076293945, 0.14000000059604645, 6.461904525756836], "mesh": 108}, {"name": "rustic_l_03", "translation": [-9.545000076293945, 0.14000000059604645, 5.766666889190674], "mesh": 108}, {"name": "rustic_l_04", "translation": [-9.545000076293945, 0.14000000059604645, 5.0714287757873535], "mesh": 108}, {"name": "rustic_l_05", "translation": [-9.545000076293945, 0.14000000059604645, 4.376190662384033], "mesh": 108}, {"name": "rustic_l_06", "translation": [-9.545000076293945, 0.14000000059604645, 3.680952310562134], "mesh": 108}, {"name": "rustic_l_07", "translation": [-9.545000076293945, 0.14000000059604645, 2.9857141971588135], "mesh": 108}, {"name": "rustic_l_08", "translation": [-9.545000076293945, 0.14000000059604645, 2.290476083755493], "mesh": 108}, {"name": "rustic_l_09", "translation": [-9.545000076293945, 0.14000000059604645, 1.5952380895614624], "mesh": 108}, {"name": "rustic_l_10", "translation": [-9.545000076293945, 0.14000000059604645, 0.8999999761581421], "mesh": 108}, {"name": "rustic_l_11", "translation": [-9.545000076293945, 0.14000000059604645, 0.20476190745830536], "mesh": 108}, {"name": "rustic_l_12", "translation": [-9.545000076293945, 0.14000000059604645, -0.49047619104385376], "mesh": 108}, {"name": "rustic_l_13", "translation": [-9.545000076293945, 0.14000000059604645, -1.1857142448425293], "mesh": 108}, {"name": "rustic_l_14", "translation": [-9.545000076293945, 0.14000000059604645, -1.8809523582458496], "mesh": 108}, {"name": "rustic_l_15", "translation": [-9.545000076293945, 0.14000000059604645, -2.57619047164917], "mesh": 108}, {"name": "rustic_l_16", "translation": [-9.545000076293945, 0.14000000059604645, -3.2714285850524902], "mesh": 108}, {"name": "rustic_l_17", "translation": [-9.545000076293945, 0.14000000059604645, -3.9666666984558105], "mesh": 108}, {"name": "rustic_l_18", "translation": [-9.545000076293945, 0.14000000059604645, -4.661904811859131], "mesh": 108}, {"name": "rustic_l_19", "translation": [-9.545000076293945, 0.14000000059604645, -5.357142925262451], "mesh": 108}, {"name": "rustic_l_20", "translation": [-9.545000076293945, 0.14000000059604645, -6.0523810386657715], "mesh": 108}, {"name": "rustic_r_00", "translation": [9.545000076293945, 0.14000000059604645, 7.852380752563477], "mesh": 108}, {"name": "rustic_r_01", "translation": [9.545000076293945, 0.14000000059604645, 7.157142639160156], "mesh": 108}, {"name": "rustic_r_02", "translation": [9.545000076293945, 0.14000000059604645, 6.461904525756836], "mesh": 108}, {"name": "rustic_r_03", "translation": [9.545000076293945, 0.14000000059604645, 5.766666889190674], "mesh": 108}, {"name": "rustic_r_04", "translation": [9.545000076293945, 0.14000000059604645, 5.0714287757873535], "mesh": 108}, {"name": "rustic_r_05", "translation": [9.545000076293945, 0.14000000059604645, 4.376190662384033], "mesh": 108}, {"name": "rustic_r_06", "translation": [9.545000076293945, 0.14000000059604645, 3.680952310562134], "mesh": 108}, {"name": "rustic_r_07", "translation": [9.545000076293945, 0.14000000059604645, 2.9857141971588135], "mesh": 108}, {"name": "rustic_r_08", "translation": [9.545000076293945, 0.14000000059604645, 2.290476083755493], "mesh": 108}, {"name": "rustic_r_09", "translation": [9.545000076293945, 0.14000000059604645, 1.5952380895614624], "mesh": 108}, {"name": "rustic_r_10", "translation": [9.545000076293945, 0.14000000059604645, 0.8999999761581421], "mesh": 108}, {"name": "rustic_r_11", "translation": [9.545000076293945, 0.14000000059604645, 0.20476190745830536], "mesh": 108}, {"name": "rustic_r_12", "translation": [9.545000076293945, 0.14000000059604645, -0.49047619104385376], "mesh": 108}, {"name": "rustic_r_13", "translation": [9.545000076293945, 0.14000000059604645, -1.1857142448425293], "mesh": 108}, {"name": "rustic_r_14", "translation": [9.545000076293945, 0.14000000059604645, -1.8809523582458496], "mesh": 108}, {"name": "rustic_r_15", "translation": [9.545000076293945, 0.14000000059604645, -2.57619047164917], "mesh": 108}, {"name": "rustic_r_16", "translation": [9.545000076293945, 0.14000000059604645, -3.2714285850524902], "mesh": 108}, {"name": "rustic_r_17", "translation": [9.545000076293945, 0.14000000059604645, -3.9666666984558105], "mesh": 108}, {"name": "rustic_r_18", "translation": [9.545000076293945, 0.14000000059604645, -4.661904811859131], "mesh": 108}, {"name": "rustic_r_19", "translation": [9.545000076293945, 0.14000000059604645, -5.357142925262451], "mesh": 108}, {"name": "rustic_r_20", "translation": [9.545000076293945, 0.14000000059604645, -6.0523810386657715], "mesh": 108}, {"name": "spire_body", "mesh": 109}, {"name": "spire_plinth", "mesh": 110}, {"name": "spire_tip", "mesh": 111}, {"name": "terrace_lower", "translation": [0, 0.07000000029802322, 0.8999999761581421], "mesh": 112}, {"name": "terrace_upper", "translation": [0, 0.20000000298023224, 0.8999999761581421], "mesh": 113}], "scenes": [{"name": "Scene", "nodes": [0, 1, 2, 3, 4, 5, 6, 7, 8, 9, 10, 11, 12, 13, 14, 15, 16, 17, 18, 19, 20, 21, 22, 23, 24, 25, 26, 27, 28, 29, 30, 31, 32, 33, 34, 35, 36, 37, 38, 39, 40, 41, 42, 43, 44, 45, 46, 47, 48, 49, 50, 51, 52, 53, 54, 55, 56, 57, 58, 59, 60, 61, 62, 63, 64, 65, 66, 67, 68, 69, 70, 71, 72, 73, 74, 75, 76, 77, 78, 79, 80, 81, 82, 83, 84, 85, 86, 87, 88, 89, 90, 91, 92, 93, 94, 95, 96, 97, 98, 99, 100, 101, 102, 103, 104, 105, 106, 107, 108, 109, 110, 111, 112, 113, 114, 115, 116, 117, 118, 119, 120, 121, 122, 123, 124, 125, 126, 127, 128, 129, 130, 131, 132, 133, 134, 135, 136, 137, 138, 139, 140, 141, 142, 143, 144, 145, 146, 147, 148, 149, 150, 151, 152, 153, 154, 155, 156, 157, 158, 159, 160, 161, 162, 163, 164, 165, 166, 167, 168, 169, 170, 171, 172, 173, 174, 175, 176, 177, 178, 179, 180, 181, 182, 183, 184, 185, 186, 187, 188, 189, 190, 191, 192, 193, 194, 195, 196, 197, 198, 199, 200, 201, 202, 203, 204, 205, 206, 207, 208, 209, 210, 211]}], "scene": 0, "extensionsUsed": ["KHR_materials_ior", "KHR_materials_specular", "KHR_materials_transmission", "KHR_texture_transform", "KHR_texture_basisu"], "extensionsRequired": ["KHR_texture_transform", "KHR_texture_basisu"]}